<svg width="1440" height="1024" viewBox="0 0 1440 1024" fill="none" xmlns="http://www.w3.org/2000/svg">
<g filter="url(#filter0_n_16_31)">
<path d="M-149.86 14.6445V46.5645M-165.82 30.6045H-133.9M-87.9398 14.6445V46.5645M-103.9 30.6045H-71.97M-26.01 14.6445V46.5645M-41.97 30.6045H-10.05M35.91 14.6445V46.5645M19.95 30.6045H51.87M97.84 14.6445V46.5645M81.87 30.6045H113.8M159.76 14.6445V46.5645M143.8 30.6045H175.72M221.68 14.6445V46.5645M205.72 30.6045H237.65M283.61 14.6445V46.5645M267.65 30.6045H299.57M345.53 14.6445V46.5645M329.57 30.6045H361.49M407.46 14.6445V46.5645M391.49 30.6045H423.42M469.38 14.6445V46.5645M453.42 30.6045H485.34M531.3 14.6445V46.5645M515.34 30.6045H547.27M593.23 14.6445V46.5645M577.27 30.6045H609.19M655.15 14.6445V46.5645M639.19 30.6045H671.11M717.08 14.6445V46.5645M701.11 30.6045H733.04M779 14.6445V46.5645M763.04 30.6045H794.96M840.92 14.6445V46.5645M824.96 30.6045H856.89M902.85 14.6445V46.5645M886.89 30.6045H918.81M964.77 14.6445V46.5645M948.81 30.6045H980.73M1026.7 14.6445V46.5645M1010.73 30.6045H1042.66M1088.62 14.6445V46.5645M1072.66 30.6045H1104.58M1150.54 14.6445V46.5645M1134.58 30.6045H1166.51M1212.47 14.6445V46.5645M1196.51 30.6045H1228.43M1274.39 14.6445V46.5645M1258.43 30.6045H1290.35M1336.32 14.6445V46.5645M1320.35 30.6045H1352.28M1398.24 14.6445V46.5645M1382.28 30.6045H1414.2M1460.16 14.6445V46.5645M1444.2 30.6045H1476.13M1522.09 14.6445V46.5645M1506.13 30.6045H1538.05M1584.01 14.6445V46.5645M1568.05 30.6045H1599.97M1645.94 14.6445V46.5645M1629.97 30.6045H1661.9M1707.86 14.6445V46.5645M1691.9 30.6045H1723.82M-149.86 76.5645V108.495M-165.82 92.535H-133.9M-87.9398 76.5645V108.495M-103.9 92.535H-71.97M-26.01 76.5645V108.495M-41.97 92.535H-10.05M35.91 76.5645V108.495M19.95 92.535H51.87M97.84 76.5645V108.495M81.87 92.535H113.8M159.76 76.5645V108.495M143.8 92.535H175.72M221.68 76.5645V108.495M205.72 92.535H237.65M283.61 76.5645V108.495M267.65 92.535H299.57M345.53 76.5645V108.495M329.57 92.535H361.49M407.46 76.5645V108.495M391.49 92.535H423.42M469.38 76.5645V108.495M453.42 92.535H485.34M531.3 76.5645V108.495M515.34 92.535H547.27M593.23 76.5645V108.495M577.27 92.535H609.19M655.15 76.5645V108.495M639.19 92.535H671.11M717.08 76.5645V108.495M701.11 92.535H733.04M779 76.5645V108.495M763.04 92.535H794.96M840.92 76.5645V108.495M824.96 92.535H856.89M902.85 76.5645V108.495M886.89 92.535H918.81M964.77 76.5645V108.495M948.81 92.535H980.73M1026.7 76.5645V108.495M1010.73 92.535H1042.66M1088.62 76.5645V108.495M1072.66 92.535H1104.58M1150.54 76.5645V108.495M1134.58 92.535H1166.51M1212.47 76.5645V108.495M1196.51 92.535H1228.43M1274.39 76.5645V108.495M1258.43 92.535H1290.35M1336.32 76.5645V108.495M1320.35 92.535H1352.28M1398.24 76.5645V108.495M1382.28 92.535H1414.2M1460.16 76.5645V108.495M1444.2 92.535H1476.13M1522.09 76.5645V108.495M1506.13 92.535H1538.05M1584.01 76.5645V108.495M1568.05 92.535H1599.97M1645.94 76.5645V108.495M1629.97 92.535H1661.9M1707.86 76.5645V108.495M1691.9 92.535H1723.82M-149.86 138.495V170.415M-165.82 154.455H-133.9M-87.9398 138.495V170.415M-103.9 154.455H-71.97M-26.01 138.495V170.415M-41.97 154.455H-10.05M35.91 138.495V170.415M19.95 154.455H51.87M97.84 138.495V170.415M81.87 154.455H113.8M159.76 138.495V170.415M143.8 154.455H175.72M221.68 138.495V170.415M205.72 154.455H237.65M283.61 138.495V170.415M267.65 154.455H299.57M345.53 138.495V170.415M329.57 154.455H361.49M407.46 138.495V170.415M391.49 154.455H423.42M469.38 138.495V170.415M453.42 154.455H485.34M531.3 138.495V170.415M515.34 154.455H547.27M593.23 138.495V170.415M577.27 154.455H609.19M655.15 138.495V170.415M639.19 154.455H671.11M717.08 138.495V170.415M701.11 154.455H733.04M779 138.495V170.415M763.04 154.455H794.96M840.92 138.495V170.415M824.96 154.455H856.89M902.85 138.495V170.415M886.89 154.455H918.81M964.77 138.495V170.415M948.81 154.455H980.73M1026.7 138.495V170.415M1010.73 154.455H1042.66M1088.62 138.495V170.415M1072.66 154.455H1104.58M1150.54 138.495V170.415M1134.58 154.455H1166.51M1212.47 138.495V170.415M1196.51 154.455H1228.43M1274.39 138.495V170.415M1258.43 154.455H1290.35M1336.32 138.495V170.415M1320.35 154.455H1352.28M1398.24 138.495V170.415M1382.28 154.455H1414.2M1460.16 138.495V170.415M1444.2 154.455H1476.13M1522.09 138.495V170.415M1506.13 154.455H1538.05M1584.01 138.495V170.415M1568.05 154.455H1599.97M1645.94 138.495V170.415M1629.97 154.455H1661.9M1707.86 138.495V170.415M1691.9 154.455H1723.82M-149.86 200.415V232.335M-165.82 216.375H-133.9M-87.9398 200.415V232.335M-103.9 216.375H-71.97M-26.01 200.415V232.335M-41.97 216.375H-10.05M35.91 200.415V232.335M19.95 216.375H51.87M97.84 200.415V232.335M81.87 216.375H113.8M159.76 200.415V232.335M143.8 216.375H175.72M221.68 200.415V232.335M205.72 216.375H237.65M283.61 200.415V232.335M267.65 216.375H299.57M345.53 200.415V232.335M329.57 216.375H361.49M407.46 200.415V232.335M391.49 216.375H423.42M469.38 200.415V232.335M453.42 216.375H485.34M531.3 200.415V232.335M515.34 216.375H547.27M593.23 200.415V232.335M577.27 216.375H609.19M655.15 200.415V232.335M639.19 216.375H671.11M717.08 200.415V232.335M701.11 216.375H733.04M779 200.415V232.335M763.04 216.375H794.96M840.92 200.415V232.335M824.96 216.375H856.89M902.85 200.415V232.335M886.89 216.375H918.81M964.77 200.415V232.335M948.81 216.375H980.73M1026.7 200.415V232.335M1010.73 216.375H1042.66M1088.62 200.415V232.335M1072.66 216.375H1104.58M1150.54 200.415V232.335M1134.58 216.375H1166.51M1212.47 200.415V232.335M1196.51 216.375H1228.43M1274.39 200.415V232.335M1258.43 216.375H1290.35M1336.32 200.415V232.335M1320.35 216.375H1352.28M1398.24 200.415V232.335M1382.28 216.375H1414.2M1460.16 200.415V232.335M1444.2 216.375H1476.13M1522.09 200.415V232.335M1506.13 216.375H1538.05M1584.01 200.415V232.335M1568.05 216.375H1599.97M1645.94 200.415V232.335M1629.97 216.375H1661.9M1707.86 200.415V232.335M1691.9 216.375H1723.82M-149.86 262.335V294.265M-165.82 278.305H-133.9M-87.9398 262.335V294.265M-103.9 278.305H-71.97M-26.01 262.335V294.265M-41.97 278.305H-10.05M35.91 262.335V294.265M19.95 278.305H51.87M97.84 262.335V294.265M81.87 278.305H113.8M159.76 262.335V294.265M143.8 278.305H175.72M221.68 262.335V294.265M205.72 278.305H237.65M283.61 262.335V294.265M267.65 278.305H299.57M345.53 262.335V294.265M329.57 278.305H361.49M407.46 262.335V294.265M391.49 278.305H423.42M469.38 262.335V294.265M453.42 278.305H485.34M531.3 262.335V294.265M515.34 278.305H547.27M593.23 262.335V294.265M577.27 278.305H609.19M655.15 262.335V294.265M639.19 278.305H671.11M717.08 262.335V294.265M701.11 278.305H733.04M779 262.335V294.265M763.04 278.305H794.96M840.92 262.335V294.265M824.96 278.305H856.89M902.85 262.335V294.265M886.89 278.305H918.81M964.77 262.335V294.265M948.81 278.305H980.73M1026.7 262.335V294.265M1010.73 278.305H1042.66M1088.62 262.335V294.265M1072.66 278.305H1104.58M1150.54 262.335V294.265M1134.58 278.305H1166.51M1212.47 262.335V294.265M1196.51 278.305H1228.43M1274.39 262.335V294.265M1258.43 278.305H1290.35M1336.32 262.335V294.265M1320.35 278.305H1352.28M1398.24 262.335V294.265M1382.28 278.305H1414.2M1460.16 262.335V294.265M1444.2 278.305H1476.13M1522.09 262.335V294.265M1506.13 278.305H1538.05M1584.01 262.335V294.265M1568.05 278.305H1599.97M1645.94 262.335V294.265M1629.97 278.305H1661.9M1707.86 262.335V294.265M1691.9 278.305H1723.82M-149.86 324.265V356.185M-165.82 340.225H-133.9M-87.9398 324.265V356.185M-103.9 340.225H-71.97M-26.01 324.265V356.185M-41.97 340.225H-10.05M35.91 324.265V356.185M19.95 340.225H51.87M97.84 324.265V356.185M81.87 340.225H113.8M159.76 324.265V356.185M143.8 340.225H175.72M221.68 324.265V356.185M205.72 340.225H237.65M283.61 324.265V356.185M267.65 340.225H299.57M345.53 324.265V356.185M329.57 340.225H361.49M407.46 324.265V356.185M391.49 340.225H423.42M469.38 324.265V356.185M453.42 340.225H485.34M531.3 324.265V356.185M515.34 340.225H547.27M593.23 324.265V356.185M577.27 340.225H609.19M655.15 324.265V356.185M639.19 340.225H671.11M717.08 324.265V356.185M701.11 340.225H733.04M779 324.265V356.185M763.04 340.225H794.96M840.92 324.265V356.185M824.96 340.225H856.89M902.85 324.265V356.185M886.89 340.225H918.81M964.77 324.265V356.185M948.81 340.225H980.73M1026.7 324.265V356.185M1010.73 340.225H1042.66M1088.62 324.265V356.185M1072.66 340.225H1104.58M1150.54 324.265V356.185M1134.58 340.225H1166.51M1212.47 324.265V356.185M1196.51 340.225H1228.43M1274.39 324.265V356.185M1258.43 340.225H1290.35M1336.32 324.265V356.185M1320.35 340.225H1352.28M1398.24 324.265V356.185M1382.28 340.225H1414.2M1460.16 324.265V356.185M1444.2 340.225H1476.13M1522.09 324.265V356.185M1506.13 340.225H1538.05M1584.01 324.265V356.185M1568.05 340.225H1599.97M1645.94 324.265V356.185M1629.97 340.225H1661.9M1707.86 324.265V356.185M1691.9 340.225H1723.82M-149.86 386.185V418.115M-165.82 402.145H-133.9M-87.9398 386.185V418.115M-103.9 402.145H-71.97M-26.01 386.185V418.115M-41.97 402.145H-10.05M35.91 386.185V418.115M19.95 402.145H51.87M97.84 386.185V418.115M81.87 402.145H113.8M159.76 386.185V418.115M143.8 402.145H175.72M221.68 386.185V418.115M205.72 402.145H237.65M283.61 386.185V418.115M267.65 402.145H299.57M345.53 386.185V418.115M329.57 402.145H361.49M407.46 386.185V418.115M391.49 402.145H423.42M469.38 386.185V418.115M453.42 402.145H485.34M531.3 386.185V418.115M515.34 402.145H547.27M593.23 386.185V418.115M577.27 402.145H609.19M655.15 386.185V418.115M639.19 402.145H671.11M717.08 386.185V418.115M701.11 402.145H733.04M779 386.185V418.115M763.04 402.145H794.96M840.92 386.185V418.115M824.96 402.145H856.89M902.85 386.185V418.115M886.89 402.145H918.81M964.77 386.185V418.115M948.81 402.145H980.73M1026.7 386.185V418.115M1010.73 402.145H1042.66M1088.62 386.185V418.115M1072.66 402.145H1104.58M1150.54 386.185V418.115M1134.58 402.145H1166.51M1212.47 386.185V418.115M1196.51 402.145H1228.43M1274.39 386.185V418.115M1258.43 402.145H1290.35M1336.32 386.185V418.115M1320.35 402.145H1352.28M1398.24 386.185V418.115M1382.28 402.145H1414.2M1460.16 386.185V418.115M1444.2 402.145H1476.13M1522.09 386.185V418.115M1506.13 402.145H1538.05M1584.01 386.185V418.115M1568.05 402.145H1599.97M1645.94 386.185V418.115M1629.97 402.145H1661.9M1707.86 386.185V418.115M1691.9 402.145H1723.82M-149.86 448.115V480.035M-165.82 464.075H-133.9M-87.9398 448.115V480.035M-103.9 464.075H-71.97M-26.01 448.115V480.035M-41.97 464.075H-10.05M35.91 448.115V480.035M19.95 464.075H51.87M97.84 448.115V480.035M81.87 464.075H113.8M159.76 448.115V480.035M143.8 464.075H175.72M221.68 448.115V480.035M205.72 464.075H237.65M283.61 448.115V480.035M267.65 464.075H299.57M345.53 448.115V480.035M329.57 464.075H361.49M407.46 448.115V480.035M391.49 464.075H423.42M469.38 448.115V480.035M453.42 464.075H485.34M531.3 448.115V480.035M515.34 464.075H547.27M593.23 448.115V480.035M577.27 464.075H609.19M655.15 448.115V480.035M639.19 464.075H671.11M717.08 448.115V480.035M701.11 464.075H733.04M779 448.115V480.035M763.04 464.075H794.96M840.92 448.115V480.035M824.96 464.075H856.89M902.85 448.115V480.035M886.89 464.075H918.81M964.77 448.115V480.035M948.81 464.075H980.73M1026.7 448.115V480.035M1010.73 464.075H1042.66M1088.62 448.115V480.035M1072.66 464.075H1104.58M1150.54 448.115V480.035M1134.58 464.075H1166.51M1212.47 448.115V480.035M1196.51 464.075H1228.43M1274.39 448.115V480.035M1258.43 464.075H1290.35M1336.32 448.115V480.035M1320.35 464.075H1352.28M1398.24 448.115V480.035M1382.28 464.075H1414.2M1460.16 448.115V480.035M1444.2 464.075H1476.13M1522.09 448.115V480.035M1506.13 464.075H1538.05M1584.01 448.115V480.035M1568.05 464.075H1599.97M1645.94 448.115V480.035M1629.97 464.075H1661.9M1707.86 448.115V480.035M1691.9 464.075H1723.82M-149.86 510.035V541.955M-165.82 525.995H-133.9M-87.9398 510.035V541.955M-103.9 525.995H-71.97M-26.01 510.035V541.955M-41.97 525.995H-10.05M35.91 510.035V541.955M19.95 525.995H51.87M97.84 510.035V541.955M81.87 525.995H113.8M159.76 510.035V541.955M143.8 525.995H175.72M221.68 510.035V541.955M205.72 525.995H237.65M283.61 510.035V541.955M267.65 525.995H299.57M345.53 510.035V541.955M329.57 525.995H361.49M407.46 510.035V541.955M391.49 525.995H423.42M469.38 510.035V541.955M453.42 525.995H485.34M531.3 510.035V541.955M515.34 525.995H547.27M593.23 510.035V541.955M577.27 525.995H609.19M655.15 510.035V541.955M639.19 525.995H671.11M717.08 510.035V541.955M701.11 525.995H733.04M779 510.035V541.955M763.04 525.995H794.96M840.92 510.035V541.955M824.96 525.995H856.89M902.85 510.035V541.955M886.89 525.995H918.81M964.77 510.035V541.955M948.81 525.995H980.73M1026.7 510.035V541.955M1010.73 525.995H1042.66M1088.62 510.035V541.955M1072.66 525.995H1104.58M1150.54 510.035V541.955M1134.58 525.995H1166.51M1212.47 510.035V541.955M1196.51 525.995H1228.43M1274.39 510.035V541.955M1258.43 525.995H1290.35M1336.32 510.035V541.955M1320.35 525.995H1352.28M1398.24 510.035V541.955M1382.28 525.995H1414.2M1460.16 510.035V541.955M1444.2 525.995H1476.13M1522.09 510.035V541.955M1506.13 525.995H1538.05M1584.01 510.035V541.955M1568.05 525.995H1599.97M1645.94 510.035V541.955M1629.97 525.995H1661.9M1707.86 510.035V541.955M1691.9 525.995H1723.82M-149.86 571.955V603.885M-165.82 587.925H-133.9M-87.9398 571.955V603.885M-103.9 587.925H-71.97M-26.01 571.955V603.885M-41.97 587.925H-10.05M35.91 571.955V603.885M19.95 587.925H51.87M97.84 571.955V603.885M81.87 587.925H113.8M159.76 571.955V603.885M143.8 587.925H175.72M221.68 571.955V603.885M205.72 587.925H237.65M283.61 571.955V603.885M267.65 587.925H299.57M345.53 571.955V603.885M329.57 587.925H361.49M407.46 571.955V603.885M391.49 587.925H423.42M469.38 571.955V603.885M453.42 587.925H485.34M531.3 571.955V603.885M515.34 587.925H547.27M593.23 571.955V603.885M577.27 587.925H609.19M655.15 571.955V603.885M639.19 587.925H671.11M717.08 571.955V603.885M701.11 587.925H733.04M779 571.955V603.885M763.04 587.925H794.96M840.92 571.955V603.885M824.96 587.925H856.89M902.85 571.955V603.885M886.89 587.925H918.81M964.77 571.955V603.885M948.81 587.925H980.73M1026.7 571.955V603.885M1010.73 587.925H1042.66M1088.62 571.955V603.885M1072.66 587.925H1104.58M1150.54 571.955V603.885M1134.58 587.925H1166.51M1212.47 571.955V603.885M1196.51 587.925H1228.43M1274.39 571.955V603.885M1258.43 587.925H1290.35M1336.32 571.955V603.885M1320.35 587.925H1352.28M1398.24 571.955V603.885M1382.28 587.925H1414.2M1460.16 571.955V603.885M1444.2 587.925H1476.13M1522.09 571.955V603.885M1506.13 587.925H1538.05M1584.01 571.955V603.885M1568.05 587.925H1599.97M1645.94 571.955V603.885M1629.97 587.925H1661.9M1707.86 571.955V603.885M1691.9 587.925H1723.82M-149.86 633.885V665.805M-165.82 649.845H-133.9M-87.9398 633.885V665.805M-103.9 649.845H-71.97M-26.01 633.885V665.805M-41.97 649.845H-10.05M35.91 633.885V665.805M19.95 649.845H51.87M97.84 633.885V665.805M81.87 649.845H113.8M159.76 633.885V665.805M143.8 649.845H175.72M221.68 633.885V665.805M205.72 649.845H237.65M283.61 633.885V665.805M267.65 649.845H299.57M345.53 633.885V665.805M329.57 649.845H361.49M407.46 633.885V665.805M391.49 649.845H423.42M469.38 633.885V665.805M453.42 649.845H485.34M531.3 633.885V665.805M515.34 649.845H547.27M593.23 633.885V665.805M577.27 649.845H609.19M655.15 633.885V665.805M639.19 649.845H671.11M717.08 633.885V665.805M701.11 649.845H733.04M779 633.885V665.805M763.04 649.845H794.96M840.92 633.885V665.805M824.96 649.845H856.89M902.85 633.885V665.805M886.89 649.845H918.81M964.77 633.885V665.805M948.81 649.845H980.73M1026.7 633.885V665.805M1010.73 649.845H1042.66M1088.62 633.885V665.805M1072.66 649.845H1104.58M1150.54 633.885V665.805M1134.58 649.845H1166.51M1212.47 633.885V665.805M1196.51 649.845H1228.43M1274.39 633.885V665.805M1258.43 649.845H1290.35M1336.32 633.885V665.805M1320.35 649.845H1352.28M1398.24 633.885V665.805M1382.28 649.845H1414.2M1460.16 633.885V665.805M1444.2 649.845H1476.13M1522.09 633.885V665.805M1506.13 649.845H1538.05M1584.01 633.885V665.805M1568.05 649.845H1599.97M1645.94 633.885V665.805M1629.97 649.845H1661.9M1707.86 633.885V665.805M1691.9 649.845H1723.82M-149.86 695.805V727.735M-165.82 711.765H-133.9M-87.9398 695.805V727.735M-103.9 711.765H-71.97M-26.01 695.805V727.735M-41.97 711.765H-10.05M35.91 695.805V727.735M19.95 711.765H51.87M97.84 695.805V727.735M81.87 711.765H113.8M159.76 695.805V727.735M143.8 711.765H175.72M221.68 695.805V727.735M205.72 711.765H237.65M283.61 695.805V727.735M267.65 711.765H299.57M345.53 695.805V727.735M329.57 711.765H361.49M407.46 695.805V727.735M391.49 711.765H423.42M469.38 695.805V727.735M453.42 711.765H485.34M531.3 695.805V727.735M515.34 711.765H547.27M593.23 695.805V727.735M577.27 711.765H609.19M655.15 695.805V727.735M639.19 711.765H671.11M717.08 695.805V727.735M701.11 711.765H733.04M779 695.805V727.735M763.04 711.765H794.96M840.92 695.805V727.735M824.96 711.765H856.89M902.85 695.805V727.735M886.89 711.765H918.81M964.77 695.805V727.735M948.81 711.765H980.73M1026.7 695.805V727.735M1010.73 711.765H1042.66M1088.62 695.805V727.735M1072.66 711.765H1104.58M1150.54 695.805V727.735M1134.58 711.765H1166.51M1212.47 695.805V727.735M1196.51 711.765H1228.43M1274.39 695.805V727.735M1258.43 711.765H1290.35M1336.32 695.805V727.735M1320.35 711.765H1352.28M1398.24 695.805V727.735M1382.28 711.765H1414.2M1460.16 695.805V727.735M1444.2 711.765H1476.13M1522.09 695.805V727.735M1506.13 711.765H1538.05M1584.01 695.805V727.735M1568.05 711.765H1599.97M1645.94 695.805V727.735M1629.97 711.765H1661.9M1707.86 695.805V727.735M1691.9 711.765H1723.82M-149.86 757.735V789.655M-165.82 773.695H-133.9M-87.9398 757.735V789.655M-103.9 773.695H-71.97M-26.01 757.735V789.655M-41.97 773.695H-10.05M35.91 757.735V789.655M19.95 773.695H51.87M97.84 757.735V789.655M81.87 773.695H113.8M159.76 757.735V789.655M143.8 773.695H175.72M221.68 757.735V789.655M205.72 773.695H237.65M283.61 757.735V789.655M267.65 773.695H299.57M345.53 757.735V789.655M329.57 773.695H361.49M407.46 757.735V789.655M391.49 773.695H423.42M469.38 757.735V789.655M453.42 773.695H485.34M531.3 757.735V789.655M515.34 773.695H547.27M593.23 757.735V789.655M577.27 773.695H609.19M655.15 757.735V789.655M639.19 773.695H671.11M717.08 757.735V789.655M701.11 773.695H733.04M779 757.735V789.655M763.04 773.695H794.96M840.92 757.735V789.655M824.96 773.695H856.89M902.85 757.735V789.655M886.89 773.695H918.81M964.77 757.735V789.655M948.81 773.695H980.73M1026.7 757.735V789.655M1010.73 773.695H1042.66M1088.62 757.735V789.655M1072.66 773.695H1104.58M1150.54 757.735V789.655M1134.58 773.695H1166.51M1212.47 757.735V789.655M1196.51 773.695H1228.43M1274.39 757.735V789.655M1258.43 773.695H1290.35M1336.32 757.735V789.655M1320.35 773.695H1352.28M1398.24 757.735V789.655M1382.28 773.695H1414.2M1460.16 757.735V789.655M1444.2 773.695H1476.13M1522.09 757.735V789.655M1506.13 773.695H1538.05M1584.01 757.735V789.655M1568.05 773.695H1599.97M1645.94 757.735V789.655M1629.97 773.695H1661.9M1707.86 757.735V789.655M1691.9 773.695H1723.82M-149.86 819.655V851.575M-165.82 835.615H-133.9M-87.9398 819.655V851.575M-103.9 835.615H-71.97M-26.01 819.655V851.575M-41.97 835.615H-10.05M35.91 819.655V851.575M19.95 835.615H51.87M97.84 819.655V851.575M81.87 835.615H113.8M159.76 819.655V851.575M143.8 835.615H175.72M221.68 819.655V851.575M205.72 835.615H237.65M283.61 819.655V851.575M267.65 835.615H299.57M345.53 819.655V851.575M329.57 835.615H361.49M407.46 819.655V851.575M391.49 835.615H423.42M469.38 819.655V851.575M453.42 835.615H485.34M531.3 819.655V851.575M515.34 835.615H547.27M593.23 819.655V851.575M577.27 835.615H609.19M655.15 819.655V851.575M639.19 835.615H671.11M717.08 819.655V851.575M701.11 835.615H733.04M779 819.655V851.575M763.04 835.615H794.96M840.92 819.655V851.575M824.96 835.615H856.89M902.85 819.655V851.575M886.89 835.615H918.81M964.77 819.655V851.575M948.81 835.615H980.73M1026.7 819.655V851.575M1010.73 835.615H1042.66M1088.62 819.655V851.575M1072.66 835.615H1104.58M1150.54 819.655V851.575M1134.58 835.615H1166.51M1212.47 819.655V851.575M1196.51 835.615H1228.43M1274.39 819.655V851.575M1258.43 835.615H1290.35M1336.32 819.655V851.575M1320.35 835.615H1352.28M1398.24 819.655V851.575M1382.28 835.615H1414.2M1460.16 819.655V851.575M1444.2 835.615H1476.13M1522.09 819.655V851.575M1506.13 835.615H1538.05M1584.01 819.655V851.575M1568.05 835.615H1599.97M1645.94 819.655V851.575M1629.97 835.615H1661.9M1707.86 819.655V851.575M1691.9 835.615H1723.82M-149.86 881.575V913.505M-165.82 897.545H-133.9M-87.9398 881.575V913.505M-103.9 897.545H-71.97M-26.01 881.575V913.505M-41.97 897.545H-10.05M35.91 881.575V913.505M19.95 897.545H51.87M97.84 881.575V913.505M81.87 897.545H113.8M159.76 881.575V913.505M143.8 897.545H175.72M221.68 881.575V913.505M205.72 897.545H237.65M283.61 881.575V913.505M267.65 897.545H299.57M345.53 881.575V913.505M329.57 897.545H361.49M407.46 881.575V913.505M391.49 897.545H423.42M469.38 881.575V913.505M453.42 897.545H485.34M531.3 881.575V913.505M515.34 897.545H547.27M593.23 881.575V913.505M577.27 897.545H609.19M655.15 881.575V913.505M639.19 897.545H671.11M717.08 881.575V913.505M701.11 897.545H733.04M779 881.575V913.505M763.04 897.545H794.96M840.92 881.575V913.505M824.96 897.545H856.89M902.85 881.575V913.505M886.89 897.545H918.81M964.77 881.575V913.505M948.81 897.545H980.73M1026.7 881.575V913.505M1010.73 897.545H1042.66M1088.62 881.575V913.505M1072.66 897.545H1104.58M1150.54 881.575V913.505M1134.58 897.545H1166.51M1212.47 881.575V913.505M1196.51 897.545H1228.43M1274.39 881.575V913.505M1258.43 897.545H1290.35M1336.32 881.575V913.505M1320.35 897.545H1352.28M1398.24 881.575V913.505M1382.28 897.545H1414.2M1460.16 881.575V913.505M1444.2 897.545H1476.13M1522.09 881.575V913.505M1506.13 897.545H1538.05M1584.01 881.575V913.505M1568.05 897.545H1599.97M1645.94 881.575V913.505M1629.97 897.545H1661.9M1707.86 881.575V913.505M1691.9 897.545H1723.82M-149.86 943.505V975.425M-165.82 959.465H-133.9M-87.9398 943.505V975.425M-103.9 959.465H-71.97M-26.01 943.505V975.425M-41.97 959.465H-10.05M35.91 943.505V975.425M19.95 959.465H51.87M97.84 943.505V975.425M81.87 959.465H113.8M159.76 943.505V975.425M143.8 959.465H175.72M221.68 943.505V975.425M205.72 959.465H237.65M283.61 943.505V975.425M267.65 959.465H299.57M345.53 943.505V975.425M329.57 959.465H361.49M407.46 943.505V975.425M391.49 959.465H423.42M469.38 943.505V975.425M453.42 959.465H485.34M531.3 943.505V975.425M515.34 959.465H547.27M593.23 943.505V975.425M577.27 959.465H609.19M655.15 943.505V975.425M639.19 959.465H671.11M717.08 943.505V975.425M701.11 959.465H733.04M779 943.505V975.425M763.04 959.465H794.96M840.92 943.505V975.425M824.96 959.465H856.89M902.85 943.505V975.425M886.89 959.465H918.81M964.77 943.505V975.425M948.81 959.465H980.73M1026.7 943.505V975.425M1010.73 959.465H1042.66M1088.62 943.505V975.425M1072.66 959.465H1104.58M1150.54 943.505V975.425M1134.58 959.465H1166.51M1212.47 943.505V975.425M1196.51 959.465H1228.43M1274.39 943.505V975.425M1258.43 959.465H1290.35M1336.32 943.505V975.425M1320.35 959.465H1352.28M1398.24 943.505V975.425M1382.28 959.465H1414.2M1460.16 943.505V975.425M1444.2 959.465H1476.13M1522.09 943.505V975.425M1506.13 959.465H1538.05M1584.01 943.505V975.425M1568.05 959.465H1599.97M1645.94 943.505V975.425M1629.97 959.465H1661.9M1707.86 943.505V975.425M1691.9 959.465H1723.82M-149.86 1005.42V1037.35M-165.82 1021.38H-133.9M-87.9398 1005.42V1037.35M-103.9 1021.38H-71.97M-26.01 1005.42V1037.35M-41.97 1021.38H-10.05M35.91 1005.42V1037.35M19.95 1021.38H51.87M97.84 1005.42V1037.35M81.87 1021.38H113.8M159.76 1005.42V1037.35M143.8 1021.38H175.72M221.68 1005.42V1037.35M205.72 1021.38H237.65M283.61 1005.42V1037.35M267.65 1021.38H299.57M345.53 1005.42V1037.35M329.57 1021.38H361.49M407.46 1005.42V1037.35M391.49 1021.38H423.42M469.38 1005.42V1037.35M453.42 1021.38H485.34M531.3 1005.42V1037.35M515.34 1021.38H547.27M593.23 1005.42V1037.35M577.27 1021.38H609.19M655.15 1005.42V1037.35M639.19 1021.38H671.11M717.08 1005.42V1037.35M701.11 1021.38H733.04M779 1005.42V1037.35M763.04 1021.38H794.96M840.92 1005.42V1037.35M824.96 1021.38H856.89M902.85 1005.42V1037.35M886.89 1021.38H918.81M964.77 1005.42V1037.35M948.81 1021.38H980.73M1026.7 1005.42V1037.35M1010.73 1021.38H1042.66M1088.62 1005.42V1037.35M1072.66 1021.38H1104.58M1150.54 1005.42V1037.35M1134.58 1021.38H1166.51M1212.47 1005.42V1037.35M1196.51 1021.38H1228.43M1274.39 1005.42V1037.35M1258.43 1021.38H1290.35M1336.32 1005.42V1037.35M1320.35 1021.38H1352.28M1398.24 1005.42V1037.35M1382.28 1021.38H1414.2M1460.16 1005.42V1037.35M1444.2 1021.38H1476.13M1522.09 1005.42V1037.35M1506.13 1021.38H1538.05M1584.01 1005.42V1037.35M1568.05 1021.38H1599.97M1645.94 1005.42V1037.35M1629.97 1021.38H1661.9M1707.86 1005.42V1037.35M1691.9 1021.38H1723.82" stroke="#79BCE8" stroke-width="4" stroke-miterlimit="10"/>
</g>
<defs>
<filter id="filter0_n_16_31" x="-181" y="-14" width="1920" height="1080" filterUnits="userSpaceOnUse" color-interpolation-filters="sRGB">
<feFlood flood-opacity="0" result="BackgroundImageFix"/>
<feBlend mode="normal" in="SourceGraphic" in2="BackgroundImageFix" result="shape"/>
<feTurbulence type="fractalNoise" baseFrequency="2 2" stitchTiles="stitch" numOctaves="3" result="noise" seed="3215" />
<feColorMatrix in="noise" type="luminanceToAlpha" result="alphaNoise" />
<feComponentTransfer in="alphaNoise" result="coloredNoise1">
<feFuncA type="discrete" tableValues="1 1 1 1 1 1 1 1 1 1 1 1 1 1 1 1 1 1 1 1 1 1 1 1 1 1 1 1 1 1 1 1 1 1 1 1 1 1 1 1 1 1 1 1 1 1 1 1 1 1 1 0 0 0 0 0 0 0 0 0 0 0 0 0 0 0 0 0 0 0 0 0 0 0 0 0 0 0 0 0 0 0 0 0 0 0 0 0 0 0 0 0 0 0 0 0 0 0 0 0 "/>
</feComponentTransfer>
<feComposite operator="in" in2="shape" in="coloredNoise1" result="noise1Clipped" />
<feFlood flood-color="rgba(0, 0, 0, 0.25)" result="color1Flood" />
<feComposite operator="in" in2="noise1Clipped" in="color1Flood" result="color1" />
<feMerge result="effect1_noise_16_31">
<feMergeNode in="shape" />
<feMergeNode in="color1" />
</feMerge>
</filter>
</defs>
</svg>
