<svg width="88" height="90" viewBox="0 0 88 90" fill="none" xmlns="http://www.w3.org/2000/svg">
<path d="M34.2471 3.84119L51.7238 19.705C52.1113 20.057 52.5788 20.3099 53.086 20.4419C53.5933 20.574 54.1253 20.5812 54.6365 20.4631L77.6593 15.068C78.2494 14.9298 78.8661 14.9591 79.4398 15.1527C80.0134 15.3463 80.521 15.6964 80.9051 16.1635C81.2891 16.6305 81.5344 17.1957 81.613 17.7952C81.6916 18.3946 81.6004 19.0044 81.3498 19.5554L71.6101 41.0572C71.391 41.5365 71.2923 42.0617 71.3223 42.5872C71.3524 43.1128 71.5103 43.6229 71.7826 44.0733L84.0012 64.2497C84.3147 64.7671 84.4766 65.3622 84.4684 65.9674C84.4601 66.5725 84.2822 67.1636 83.9547 67.6735C83.6273 68.1834 83.1634 68.5918 82.6156 68.8523C82.0679 69.1128 81.4582 69.2151 80.8558 69.1475L57.3678 66.5752C56.8453 66.5182 56.3166 66.5888 55.8271 66.7809C55.3376 66.973 54.902 67.2809 54.5578 67.678L39.0787 85.5429C38.6823 85.9993 38.1661 86.3363 37.5885 86.5159C37.0109 86.6954 36.3949 86.7104 35.8098 86.5591C35.2247 86.4078 34.6939 86.0962 34.2772 85.6596C33.8606 85.2229 33.5747 84.6785 33.4517 84.0878L28.676 60.9905C28.5707 60.4755 28.3414 59.994 28.0078 59.5876C27.6741 59.1813 27.2463 58.8623 26.7611 58.6582L4.9867 49.5241C4.42823 49.2906 3.94668 48.9057 3.59657 48.4127C3.24646 47.9198 3.04178 47.3387 3.0057 46.7351C2.96962 46.1315 3.10359 45.5296 3.39243 44.9975C3.68127 44.4655 4.11345 44.0245 4.64003 43.7245L25.187 32.0206C25.6444 31.7603 26.0318 31.3931 26.3157 30.9504C26.5996 30.5078 26.7715 30.0031 26.8166 29.4798L28.8286 5.96769C28.8803 5.36559 29.0997 4.78963 29.462 4.30493C29.8243 3.82023 30.315 3.44612 30.8787 3.22489C31.4424 3.00366 32.0566 2.94414 32.6519 3.05305C33.2471 3.16196 33.7997 3.43496 34.2471 3.84119Z" fill="#FDCB63" stroke="#2C2C2C" stroke-width="6" stroke-linecap="round" stroke-linejoin="round"/>
</svg>
