<svg width="427" height="80" viewBox="0 0 427 80" fill="none" xmlns="http://www.w3.org/2000/svg">
<g filter="url(#filter0_d_16_37)">
<mask id="path-1-outside-1_16_37" maskUnits="userSpaceOnUse" x="-0.77832" y="-0.527985" width="420" height="73" fill="black">
<rect fill="white" x="-0.77832" y="-0.527985" width="420" height="73"/>
<path d="M53.8564 8.35201C54.1978 8.99201 54.3898 9.56801 54.4324 10.08C54.5178 10.592 54.5604 11.3387 54.5604 12.32V47.84C54.5604 50.784 53.7498 52.512 52.1284 53.024C51.3178 53.28 50.2938 53.408 49.0564 53.408C47.8191 53.408 46.8378 53.3013 46.1124 53.088C45.3871 52.8747 44.8324 52.6187 44.4484 52.32C44.0644 52.0213 43.7658 51.5947 43.5524 51.04C43.3391 50.3147 43.2324 49.2053 43.2324 47.712V26.272C42.1658 27.5947 40.6084 29.7067 38.5604 32.608C36.5124 35.4667 35.2111 37.2587 34.6564 37.984C34.1018 38.7093 33.7178 39.2213 33.5044 39.52C33.2911 39.776 32.7578 40.16 31.9044 40.672C31.0938 41.1413 30.1978 41.376 29.2164 41.376C28.2778 41.376 27.4031 41.1627 26.5924 40.736C25.8244 40.2667 25.2698 39.8187 24.9284 39.392L24.4164 38.688C23.5631 37.6213 21.8778 35.36 19.3604 31.904C16.8431 28.4053 15.4778 26.528 15.2644 26.272V47.84C15.2644 48.8213 15.2218 49.568 15.1364 50.08C15.0938 50.5493 14.9018 51.0827 14.5604 51.68C13.9204 52.832 12.2564 53.408 9.56843 53.408C6.96576 53.408 5.34443 52.832 4.70443 51.68C4.3631 51.0827 4.14976 50.528 4.06443 50.016C4.02176 49.504 4.00043 48.736 4.00043 47.712V12.192C4.00043 11.2107 4.02176 10.4853 4.06443 10.016C4.14976 9.50401 4.3631 8.92801 4.70443 8.28801C5.34443 7.17868 7.00843 6.62401 9.69643 6.62401C10.8484 6.62401 11.8298 6.77335 12.6404 7.07201C13.4938 7.32801 14.0484 7.60535 14.3044 7.90401L14.6884 8.28801L29.2164 27.36C36.4698 17.76 41.3124 11.424 43.7444 8.35201C44.4698 7.20001 46.1764 6.62401 48.8644 6.62401C51.5951 6.62401 53.2591 7.20001 53.8564 8.35201ZM81.5759 23.328C81.8319 20.9387 83.5173 19.744 86.6319 19.744C88.2959 19.744 89.5333 19.872 90.3439 20.128C91.1546 20.384 91.7093 20.832 92.0079 21.472C92.3493 22.112 92.5413 22.688 92.5839 23.2C92.6693 23.6693 92.7119 24.3947 92.7119 25.376V47.776C92.7119 48.7573 92.6693 49.504 92.5839 50.016C92.5413 50.4853 92.3706 51.04 92.0719 51.68C91.4746 52.7893 90.0026 53.344 87.6559 53.344C85.3519 53.344 83.7946 53.0667 82.9839 52.512C82.2159 51.9147 81.7679 51.0613 81.6399 49.952C80.0613 52.2133 77.4159 53.344 73.7039 53.344C70.0346 53.344 66.6213 51.6587 63.4639 48.288C60.3066 44.9173 58.7279 41.0133 58.7279 36.576C58.7279 32.096 60.3066 28.192 63.4639 24.864C66.6639 21.4933 70.1626 19.808 73.9599 19.808C75.4106 19.808 76.7333 20.064 77.9279 20.576C79.1226 21.088 79.9546 21.5787 80.4239 22.048C80.8933 22.4747 81.2773 22.9013 81.5759 23.328ZM69.9279 36.64C69.9279 38.048 70.4826 39.328 71.5919 40.48C72.7013 41.5893 74.0453 42.144 75.6239 42.144C77.2026 42.144 78.5039 41.568 79.5279 40.416C80.5946 39.264 81.1279 38.0053 81.1279 36.64C81.1279 35.232 80.6159 33.9307 79.5919 32.736C78.6106 31.5413 77.2666 30.944 75.5599 30.944C73.8959 30.944 72.5306 31.5413 71.4639 32.736C70.4399 33.9307 69.9279 35.232 69.9279 36.64ZM119.189 49.248C117.568 51.3813 114.986 52.448 111.445 52.448C107.904 52.448 104.576 50.8267 101.461 47.584C98.3889 44.2987 96.8529 40.48 96.8529 36.128C96.8529 31.776 98.4103 27.9573 101.525 24.672C104.64 21.3867 108.053 19.744 111.765 19.744C113.216 19.744 114.538 20.0213 115.733 20.576C116.928 21.088 117.738 21.5787 118.165 22.048C118.634 22.4747 118.997 22.88 119.253 23.264C119.381 22.0693 119.808 21.1733 120.533 20.576C121.301 19.936 122.517 19.616 124.181 19.616C125.845 19.616 127.061 19.744 127.829 20C128.597 20.256 129.13 20.704 129.429 21.344C129.77 21.9413 129.962 22.4747 130.005 22.944C130.09 23.4133 130.133 24.1387 130.133 25.12V51.616C130.133 56.5227 128.426 60.4693 125.013 63.456C121.6 66.4853 117.76 68 113.493 68C110.25 68 107.157 67.2107 104.213 65.632C101.269 64.0533 99.7969 62.624 99.7969 61.344C99.7969 59.68 100.437 58.208 101.717 56.928C102.528 56.032 103.146 55.4133 103.573 55.072C104.042 54.7307 104.576 54.56 105.173 54.56C105.77 54.56 106.389 54.816 107.029 55.328C109.077 56.9067 111.296 57.696 113.685 57.696C115.306 57.696 116.629 57.056 117.653 55.776C118.677 54.496 119.189 52.96 119.189 51.168V49.248ZM107.797 36.192C107.797 37.5573 108.33 38.7947 109.397 39.904C110.506 41.0133 111.829 41.568 113.365 41.568C114.944 41.568 116.245 41.0133 117.269 39.904C118.293 38.752 118.805 37.5147 118.805 36.192C118.805 34.8267 118.314 33.568 117.333 32.416C116.352 31.2213 115.029 30.624 113.365 30.624C111.701 30.624 110.357 31.2 109.333 32.352C108.309 33.504 107.797 34.784 107.797 36.192ZM150.226 53.344C145.917 53.344 142.333 51.7227 139.474 48.48C136.658 45.1947 135.25 41.2053 135.25 36.512V25.312C135.25 24.288 135.272 23.5413 135.314 23.072C135.4 22.6027 135.592 22.048 135.89 21.408C136.488 20.256 138.152 19.68 140.882 19.68C143.869 19.68 145.618 20.4907 146.13 22.112C146.386 22.7947 146.514 23.8827 146.514 25.376V36.576C146.514 38.3253 147.005 39.6907 147.986 40.672C149.01 41.6533 150.354 42.144 152.018 42.144C153.725 42.144 155.09 41.632 156.114 40.608C157.181 39.584 157.714 38.24 157.714 36.576V25.248C157.714 24.2667 157.736 23.5413 157.778 23.072C157.864 22.56 158.077 21.984 158.418 21.344C158.973 20.2347 160.616 19.68 163.346 19.68C166.034 19.68 167.677 20.256 168.274 21.408C168.573 22.048 168.744 22.624 168.786 23.136C168.872 23.6053 168.914 24.3307 168.914 25.312V47.968C168.914 48.9067 168.872 49.632 168.786 50.144C168.744 50.6133 168.552 51.1467 168.21 51.744C167.57 52.8533 165.928 53.408 163.282 53.408C160.68 53.408 159.08 52.896 158.482 51.872C158.056 51.1467 157.842 50.272 157.842 49.248C157.672 49.5467 157.288 49.9733 156.69 50.528C156.093 51.0827 155.517 51.552 154.962 51.936C153.512 52.8747 151.933 53.344 150.226 53.344ZM174.063 25.376C174.063 24.3947 174.084 23.6693 174.127 23.2C174.212 22.688 174.404 22.112 174.703 21.472C175.3 20.3627 176.964 19.808 179.695 19.808C181.743 19.808 183.194 20.1707 184.047 20.896C184.772 21.4933 185.156 22.4107 185.199 23.648C185.242 24.0747 185.263 24.6933 185.263 25.504V47.904C185.263 48.8853 185.22 49.632 185.135 50.144C185.092 50.6133 184.9 51.168 184.559 51.808C184.004 52.9173 182.362 53.472 179.631 53.472C176.943 53.472 175.3 52.896 174.703 51.744C174.404 51.104 174.212 50.5493 174.127 50.08C174.084 49.6107 174.063 48.864 174.063 47.84V25.376ZM184.559 13.536C184.26 14.1333 183.706 14.56 182.895 14.816C182.084 15.072 180.996 15.2 179.631 15.2C178.308 15.2 177.242 15.072 176.431 14.816C175.62 14.56 175.044 14.112 174.703 13.472C174.404 12.832 174.212 12.2773 174.127 11.808C174.084 11.296 174.063 10.5493 174.063 9.56801C174.063 8.58668 174.084 7.86135 174.127 7.39201C174.212 6.88001 174.404 6.32535 174.703 5.72801C175.3 4.57601 176.964 4.00001 179.695 4.00001C182.383 4.00001 184.004 4.57601 184.559 5.72801C184.9 6.36801 185.092 6.94401 185.135 7.45601C185.22 7.92535 185.263 8.65068 185.263 9.63201C185.263 10.6133 185.22 11.36 185.135 11.872C185.092 12.3413 184.9 12.896 184.559 13.536ZM209.959 31.072L205.799 30.816V39.648C205.799 40.8 205.97 41.632 206.311 42.144C206.695 42.656 207.378 42.912 208.359 42.912C209.383 42.912 210.151 42.9547 210.663 43.04C211.218 43.0827 211.794 43.2747 212.391 43.616C213.373 44.1707 213.863 45.6 213.863 47.904C213.863 50.592 213.266 52.2347 212.071 52.832C211.431 53.1307 210.855 53.3227 210.343 53.408C209.874 53.4507 209.17 53.472 208.231 53.472C203.794 53.472 200.423 52.4693 198.119 50.464C195.815 48.4587 194.663 45.0667 194.663 40.288V30.816C193.853 30.944 192.978 31.008 192.039 31.008C191.101 31.008 190.311 30.6453 189.671 29.92C189.074 29.1947 188.775 27.9573 188.775 26.208C188.775 24.4587 188.882 23.2 189.095 22.432C189.309 21.6213 189.607 21.0453 189.991 20.704C190.674 20.1493 191.527 19.872 192.551 19.872L194.663 20.128V13.536C194.663 12.5547 194.685 11.8293 194.727 11.36C194.813 10.8907 195.026 10.3787 195.367 9.82401C195.922 8.75735 197.565 8.22401 200.295 8.22401C203.197 8.22401 204.925 9.01335 205.479 10.592C205.693 11.2747 205.799 12.3627 205.799 13.856V20.128C207.677 19.9573 209.085 19.872 210.023 19.872C211.005 19.872 211.73 19.9147 212.199 20C212.711 20.0427 213.287 20.2347 213.927 20.576C215.037 21.1307 215.591 22.7733 215.591 25.504C215.591 28.192 215.015 29.8347 213.863 30.432C213.223 30.7307 212.647 30.9227 212.135 31.008C211.666 31.0507 210.941 31.072 209.959 31.072ZM218.165 36.64C218.165 31.52 219.957 27.296 223.541 23.968C227.125 20.64 231.221 18.976 235.829 18.976C240.437 18.976 244.512 20.64 248.053 23.968C251.595 27.2533 253.365 31.456 253.365 36.576C253.365 40.1173 252.448 43.2747 250.613 46.048C248.779 48.7787 246.539 50.8053 243.893 52.128C241.291 53.408 238.581 54.048 235.765 54.048C232.949 54.048 230.219 53.3653 227.573 52C224.928 50.592 222.688 48.544 220.853 45.856C219.061 43.1253 218.165 40.0533 218.165 36.64ZM231.541 41.248C232.907 42.272 234.293 42.784 235.701 42.784C237.109 42.784 238.517 42.2507 239.925 41.184C241.333 40.1173 242.037 38.5387 242.037 36.448C242.037 34.3573 241.376 32.8 240.053 31.776C238.731 30.752 237.301 30.24 235.765 30.24C234.229 30.24 232.8 30.7733 231.477 31.84C230.155 32.9067 229.493 34.4853 229.493 36.576C229.493 38.624 230.176 40.1813 231.541 41.248ZM285.016 44H302.424C303.832 44 304.856 44.1707 305.496 44.512C306.136 44.8107 306.563 45.3013 306.776 45.984C306.989 46.6667 307.096 47.584 307.096 48.736C307.096 49.8453 306.989 50.7413 306.776 51.424C306.563 52.1067 306.2 52.576 305.688 52.832C304.877 53.2587 303.768 53.472 302.36 53.472H279.32C276.333 53.472 274.584 52.6613 274.072 51.04C273.816 50.3573 273.688 49.2693 273.688 47.776V12.192C273.688 11.2107 273.709 10.4853 273.752 10.016C273.837 9.50401 274.051 8.92801 274.392 8.28801C274.989 7.13601 276.653 6.56001 279.384 6.56001C282.371 6.56001 284.141 7.34935 284.696 8.92801C284.909 9.65335 285.016 10.7627 285.016 12.256V44ZM333.138 23.328C333.394 20.9387 335.08 19.744 338.194 19.744C339.858 19.744 341.096 19.872 341.906 20.128C342.717 20.384 343.272 20.832 343.57 21.472C343.912 22.112 344.104 22.688 344.146 23.2C344.232 23.6693 344.274 24.3947 344.274 25.376V47.776C344.274 48.7573 344.232 49.504 344.146 50.016C344.104 50.4853 343.933 51.04 343.634 51.68C343.037 52.7893 341.565 53.344 339.218 53.344C336.914 53.344 335.357 53.0667 334.546 52.512C333.778 51.9147 333.33 51.0613 333.202 49.952C331.624 52.2133 328.978 53.344 325.266 53.344C321.597 53.344 318.184 51.6587 315.026 48.288C311.869 44.9173 310.29 41.0133 310.29 36.576C310.29 32.096 311.869 28.192 315.026 24.864C318.226 21.4933 321.725 19.808 325.522 19.808C326.973 19.808 328.296 20.064 329.49 20.576C330.685 21.088 331.517 21.5787 331.986 22.048C332.456 22.4747 332.84 22.9013 333.138 23.328ZM321.49 36.64C321.49 38.048 322.045 39.328 323.154 40.48C324.264 41.5893 325.608 42.144 327.186 42.144C328.765 42.144 330.066 41.568 331.09 40.416C332.157 39.264 332.69 38.0053 332.69 36.64C332.69 35.232 332.178 33.9307 331.154 32.736C330.173 31.5413 328.829 30.944 327.122 30.944C325.458 30.944 324.093 31.5413 323.026 32.736C322.002 33.9307 321.49 35.232 321.49 36.64ZM367.871 19.808C371.669 19.808 375.146 21.4933 378.303 24.864C381.503 28.2347 383.103 32.16 383.103 36.64C383.103 41.0773 381.525 44.9813 378.367 48.352C375.21 51.68 371.818 53.344 368.191 53.344C364.565 53.344 361.983 52.32 360.447 50.272C360.106 52.3627 358.271 53.408 354.943 53.408C352.255 53.408 350.613 52.832 350.015 51.68C349.717 51.04 349.525 50.4853 349.439 50.016C349.397 49.504 349.375 48.7573 349.375 47.776V9.56801C349.375 8.58668 349.397 7.86135 349.439 7.39201C349.525 6.88001 349.717 6.32535 350.015 5.72801C350.613 4.57601 352.277 4.00001 355.007 4.00001C357.695 4.00001 359.317 4.57601 359.871 5.72801C360.213 6.36801 360.405 6.94401 360.447 7.45601C360.533 7.92535 360.575 8.65068 360.575 9.63201V22.944C362.282 20.8533 364.714 19.808 367.871 19.808ZM362.239 40.48C363.306 41.632 364.629 42.208 366.207 42.208C367.786 42.208 369.13 41.632 370.239 40.48C371.349 39.328 371.903 38.048 371.903 36.64C371.903 35.232 371.391 33.952 370.367 32.8C369.343 31.6053 367.978 31.008 366.271 31.008C364.565 31.008 363.199 31.6053 362.175 32.8C361.194 33.9947 360.703 35.296 360.703 36.704C360.703 38.0693 361.215 39.328 362.239 40.48ZM387.506 50.464C386.696 49.952 386.29 49.1413 386.29 48.032C386.29 46.9227 387.101 45.2373 388.722 42.976C389.192 42.2507 389.938 41.888 390.962 41.888C392.029 41.888 393.458 42.4213 395.25 43.488C397.042 44.512 398.664 45.024 400.114 45.024C402.717 45.024 404.018 44.512 404.018 43.488C404.018 42.6773 402.589 42.08 399.73 41.696C397.042 41.312 394.376 40.3093 391.73 38.688C390.493 37.92 389.469 36.7253 388.658 35.104C387.848 33.44 387.442 31.4773 387.442 29.216C387.442 22.4747 392.072 19.104 401.33 19.104C404.36 19.104 407.474 19.8293 410.674 21.28C412.168 21.9627 412.914 22.816 412.914 23.84C412.914 24.864 412.445 26.1227 411.506 27.616C410.568 29.1093 409.608 29.856 408.626 29.856C408.114 29.856 407.154 29.536 405.746 28.896C404.381 28.256 402.888 27.936 401.266 27.936C398.749 27.936 397.49 28.4053 397.49 29.344C397.49 30.624 398.941 31.456 401.842 31.84C404.658 32.1387 407.389 32.9493 410.034 34.272C411.272 34.8693 412.296 35.9147 413.106 37.408C413.96 38.8587 414.386 40.6933 414.386 42.912C414.386 45.1307 413.96 47.0293 413.106 48.608C412.296 50.144 411.144 51.296 409.65 52.064C406.92 53.3867 403.485 54.048 399.346 54.048C395.25 54.048 391.304 52.8533 387.506 50.464Z"/>
</mask>
<path d="M53.8564 8.35201C54.1978 8.99201 54.3898 9.56801 54.4324 10.08C54.5178 10.592 54.5604 11.3387 54.5604 12.32V47.84C54.5604 50.784 53.7498 52.512 52.1284 53.024C51.3178 53.28 50.2938 53.408 49.0564 53.408C47.8191 53.408 46.8378 53.3013 46.1124 53.088C45.3871 52.8747 44.8324 52.6187 44.4484 52.32C44.0644 52.0213 43.7658 51.5947 43.5524 51.04C43.3391 50.3147 43.2324 49.2053 43.2324 47.712V26.272C42.1658 27.5947 40.6084 29.7067 38.5604 32.608C36.5124 35.4667 35.2111 37.2587 34.6564 37.984C34.1018 38.7093 33.7178 39.2213 33.5044 39.52C33.2911 39.776 32.7578 40.16 31.9044 40.672C31.0938 41.1413 30.1978 41.376 29.2164 41.376C28.2778 41.376 27.4031 41.1627 26.5924 40.736C25.8244 40.2667 25.2698 39.8187 24.9284 39.392L24.4164 38.688C23.5631 37.6213 21.8778 35.36 19.3604 31.904C16.8431 28.4053 15.4778 26.528 15.2644 26.272V47.84C15.2644 48.8213 15.2218 49.568 15.1364 50.08C15.0938 50.5493 14.9018 51.0827 14.5604 51.68C13.9204 52.832 12.2564 53.408 9.56843 53.408C6.96576 53.408 5.34443 52.832 4.70443 51.68C4.3631 51.0827 4.14976 50.528 4.06443 50.016C4.02176 49.504 4.00043 48.736 4.00043 47.712V12.192C4.00043 11.2107 4.02176 10.4853 4.06443 10.016C4.14976 9.50401 4.3631 8.92801 4.70443 8.28801C5.34443 7.17868 7.00843 6.62401 9.69643 6.62401C10.8484 6.62401 11.8298 6.77335 12.6404 7.07201C13.4938 7.32801 14.0484 7.60535 14.3044 7.90401L14.6884 8.28801L29.2164 27.36C36.4698 17.76 41.3124 11.424 43.7444 8.35201C44.4698 7.20001 46.1764 6.62401 48.8644 6.62401C51.5951 6.62401 53.2591 7.20001 53.8564 8.35201ZM81.5759 23.328C81.8319 20.9387 83.5173 19.744 86.6319 19.744C88.2959 19.744 89.5333 19.872 90.3439 20.128C91.1546 20.384 91.7093 20.832 92.0079 21.472C92.3493 22.112 92.5413 22.688 92.5839 23.2C92.6693 23.6693 92.7119 24.3947 92.7119 25.376V47.776C92.7119 48.7573 92.6693 49.504 92.5839 50.016C92.5413 50.4853 92.3706 51.04 92.0719 51.68C91.4746 52.7893 90.0026 53.344 87.6559 53.344C85.3519 53.344 83.7946 53.0667 82.9839 52.512C82.2159 51.9147 81.7679 51.0613 81.6399 49.952C80.0613 52.2133 77.4159 53.344 73.7039 53.344C70.0346 53.344 66.6213 51.6587 63.4639 48.288C60.3066 44.9173 58.7279 41.0133 58.7279 36.576C58.7279 32.096 60.3066 28.192 63.4639 24.864C66.6639 21.4933 70.1626 19.808 73.9599 19.808C75.4106 19.808 76.7333 20.064 77.9279 20.576C79.1226 21.088 79.9546 21.5787 80.4239 22.048C80.8933 22.4747 81.2773 22.9013 81.5759 23.328ZM69.9279 36.64C69.9279 38.048 70.4826 39.328 71.5919 40.48C72.7013 41.5893 74.0453 42.144 75.6239 42.144C77.2026 42.144 78.5039 41.568 79.5279 40.416C80.5946 39.264 81.1279 38.0053 81.1279 36.64C81.1279 35.232 80.6159 33.9307 79.5919 32.736C78.6106 31.5413 77.2666 30.944 75.5599 30.944C73.8959 30.944 72.5306 31.5413 71.4639 32.736C70.4399 33.9307 69.9279 35.232 69.9279 36.64ZM119.189 49.248C117.568 51.3813 114.986 52.448 111.445 52.448C107.904 52.448 104.576 50.8267 101.461 47.584C98.3889 44.2987 96.8529 40.48 96.8529 36.128C96.8529 31.776 98.4103 27.9573 101.525 24.672C104.64 21.3867 108.053 19.744 111.765 19.744C113.216 19.744 114.538 20.0213 115.733 20.576C116.928 21.088 117.738 21.5787 118.165 22.048C118.634 22.4747 118.997 22.88 119.253 23.264C119.381 22.0693 119.808 21.1733 120.533 20.576C121.301 19.936 122.517 19.616 124.181 19.616C125.845 19.616 127.061 19.744 127.829 20C128.597 20.256 129.13 20.704 129.429 21.344C129.77 21.9413 129.962 22.4747 130.005 22.944C130.09 23.4133 130.133 24.1387 130.133 25.12V51.616C130.133 56.5227 128.426 60.4693 125.013 63.456C121.6 66.4853 117.76 68 113.493 68C110.25 68 107.157 67.2107 104.213 65.632C101.269 64.0533 99.7969 62.624 99.7969 61.344C99.7969 59.68 100.437 58.208 101.717 56.928C102.528 56.032 103.146 55.4133 103.573 55.072C104.042 54.7307 104.576 54.56 105.173 54.56C105.77 54.56 106.389 54.816 107.029 55.328C109.077 56.9067 111.296 57.696 113.685 57.696C115.306 57.696 116.629 57.056 117.653 55.776C118.677 54.496 119.189 52.96 119.189 51.168V49.248ZM107.797 36.192C107.797 37.5573 108.33 38.7947 109.397 39.904C110.506 41.0133 111.829 41.568 113.365 41.568C114.944 41.568 116.245 41.0133 117.269 39.904C118.293 38.752 118.805 37.5147 118.805 36.192C118.805 34.8267 118.314 33.568 117.333 32.416C116.352 31.2213 115.029 30.624 113.365 30.624C111.701 30.624 110.357 31.2 109.333 32.352C108.309 33.504 107.797 34.784 107.797 36.192ZM150.226 53.344C145.917 53.344 142.333 51.7227 139.474 48.48C136.658 45.1947 135.25 41.2053 135.25 36.512V25.312C135.25 24.288 135.272 23.5413 135.314 23.072C135.4 22.6027 135.592 22.048 135.89 21.408C136.488 20.256 138.152 19.68 140.882 19.68C143.869 19.68 145.618 20.4907 146.13 22.112C146.386 22.7947 146.514 23.8827 146.514 25.376V36.576C146.514 38.3253 147.005 39.6907 147.986 40.672C149.01 41.6533 150.354 42.144 152.018 42.144C153.725 42.144 155.09 41.632 156.114 40.608C157.181 39.584 157.714 38.24 157.714 36.576V25.248C157.714 24.2667 157.736 23.5413 157.778 23.072C157.864 22.56 158.077 21.984 158.418 21.344C158.973 20.2347 160.616 19.68 163.346 19.68C166.034 19.68 167.677 20.256 168.274 21.408C168.573 22.048 168.744 22.624 168.786 23.136C168.872 23.6053 168.914 24.3307 168.914 25.312V47.968C168.914 48.9067 168.872 49.632 168.786 50.144C168.744 50.6133 168.552 51.1467 168.21 51.744C167.57 52.8533 165.928 53.408 163.282 53.408C160.68 53.408 159.08 52.896 158.482 51.872C158.056 51.1467 157.842 50.272 157.842 49.248C157.672 49.5467 157.288 49.9733 156.69 50.528C156.093 51.0827 155.517 51.552 154.962 51.936C153.512 52.8747 151.933 53.344 150.226 53.344ZM174.063 25.376C174.063 24.3947 174.084 23.6693 174.127 23.2C174.212 22.688 174.404 22.112 174.703 21.472C175.3 20.3627 176.964 19.808 179.695 19.808C181.743 19.808 183.194 20.1707 184.047 20.896C184.772 21.4933 185.156 22.4107 185.199 23.648C185.242 24.0747 185.263 24.6933 185.263 25.504V47.904C185.263 48.8853 185.22 49.632 185.135 50.144C185.092 50.6133 184.9 51.168 184.559 51.808C184.004 52.9173 182.362 53.472 179.631 53.472C176.943 53.472 175.3 52.896 174.703 51.744C174.404 51.104 174.212 50.5493 174.127 50.08C174.084 49.6107 174.063 48.864 174.063 47.84V25.376ZM184.559 13.536C184.26 14.1333 183.706 14.56 182.895 14.816C182.084 15.072 180.996 15.2 179.631 15.2C178.308 15.2 177.242 15.072 176.431 14.816C175.62 14.56 175.044 14.112 174.703 13.472C174.404 12.832 174.212 12.2773 174.127 11.808C174.084 11.296 174.063 10.5493 174.063 9.56801C174.063 8.58668 174.084 7.86135 174.127 7.39201C174.212 6.88001 174.404 6.32535 174.703 5.72801C175.3 4.57601 176.964 4.00001 179.695 4.00001C182.383 4.00001 184.004 4.57601 184.559 5.72801C184.9 6.36801 185.092 6.94401 185.135 7.45601C185.22 7.92535 185.263 8.65068 185.263 9.63201C185.263 10.6133 185.22 11.36 185.135 11.872C185.092 12.3413 184.9 12.896 184.559 13.536ZM209.959 31.072L205.799 30.816V39.648C205.799 40.8 205.97 41.632 206.311 42.144C206.695 42.656 207.378 42.912 208.359 42.912C209.383 42.912 210.151 42.9547 210.663 43.04C211.218 43.0827 211.794 43.2747 212.391 43.616C213.373 44.1707 213.863 45.6 213.863 47.904C213.863 50.592 213.266 52.2347 212.071 52.832C211.431 53.1307 210.855 53.3227 210.343 53.408C209.874 53.4507 209.17 53.472 208.231 53.472C203.794 53.472 200.423 52.4693 198.119 50.464C195.815 48.4587 194.663 45.0667 194.663 40.288V30.816C193.853 30.944 192.978 31.008 192.039 31.008C191.101 31.008 190.311 30.6453 189.671 29.92C189.074 29.1947 188.775 27.9573 188.775 26.208C188.775 24.4587 188.882 23.2 189.095 22.432C189.309 21.6213 189.607 21.0453 189.991 20.704C190.674 20.1493 191.527 19.872 192.551 19.872L194.663 20.128V13.536C194.663 12.5547 194.685 11.8293 194.727 11.36C194.813 10.8907 195.026 10.3787 195.367 9.82401C195.922 8.75735 197.565 8.22401 200.295 8.22401C203.197 8.22401 204.925 9.01335 205.479 10.592C205.693 11.2747 205.799 12.3627 205.799 13.856V20.128C207.677 19.9573 209.085 19.872 210.023 19.872C211.005 19.872 211.73 19.9147 212.199 20C212.711 20.0427 213.287 20.2347 213.927 20.576C215.037 21.1307 215.591 22.7733 215.591 25.504C215.591 28.192 215.015 29.8347 213.863 30.432C213.223 30.7307 212.647 30.9227 212.135 31.008C211.666 31.0507 210.941 31.072 209.959 31.072ZM218.165 36.64C218.165 31.52 219.957 27.296 223.541 23.968C227.125 20.64 231.221 18.976 235.829 18.976C240.437 18.976 244.512 20.64 248.053 23.968C251.595 27.2533 253.365 31.456 253.365 36.576C253.365 40.1173 252.448 43.2747 250.613 46.048C248.779 48.7787 246.539 50.8053 243.893 52.128C241.291 53.408 238.581 54.048 235.765 54.048C232.949 54.048 230.219 53.3653 227.573 52C224.928 50.592 222.688 48.544 220.853 45.856C219.061 43.1253 218.165 40.0533 218.165 36.64ZM231.541 41.248C232.907 42.272 234.293 42.784 235.701 42.784C237.109 42.784 238.517 42.2507 239.925 41.184C241.333 40.1173 242.037 38.5387 242.037 36.448C242.037 34.3573 241.376 32.8 240.053 31.776C238.731 30.752 237.301 30.24 235.765 30.24C234.229 30.24 232.8 30.7733 231.477 31.84C230.155 32.9067 229.493 34.4853 229.493 36.576C229.493 38.624 230.176 40.1813 231.541 41.248ZM285.016 44H302.424C303.832 44 304.856 44.1707 305.496 44.512C306.136 44.8107 306.563 45.3013 306.776 45.984C306.989 46.6667 307.096 47.584 307.096 48.736C307.096 49.8453 306.989 50.7413 306.776 51.424C306.563 52.1067 306.2 52.576 305.688 52.832C304.877 53.2587 303.768 53.472 302.36 53.472H279.32C276.333 53.472 274.584 52.6613 274.072 51.04C273.816 50.3573 273.688 49.2693 273.688 47.776V12.192C273.688 11.2107 273.709 10.4853 273.752 10.016C273.837 9.50401 274.051 8.92801 274.392 8.28801C274.989 7.13601 276.653 6.56001 279.384 6.56001C282.371 6.56001 284.141 7.34935 284.696 8.92801C284.909 9.65335 285.016 10.7627 285.016 12.256V44ZM333.138 23.328C333.394 20.9387 335.08 19.744 338.194 19.744C339.858 19.744 341.096 19.872 341.906 20.128C342.717 20.384 343.272 20.832 343.57 21.472C343.912 22.112 344.104 22.688 344.146 23.2C344.232 23.6693 344.274 24.3947 344.274 25.376V47.776C344.274 48.7573 344.232 49.504 344.146 50.016C344.104 50.4853 343.933 51.04 343.634 51.68C343.037 52.7893 341.565 53.344 339.218 53.344C336.914 53.344 335.357 53.0667 334.546 52.512C333.778 51.9147 333.33 51.0613 333.202 49.952C331.624 52.2133 328.978 53.344 325.266 53.344C321.597 53.344 318.184 51.6587 315.026 48.288C311.869 44.9173 310.29 41.0133 310.29 36.576C310.29 32.096 311.869 28.192 315.026 24.864C318.226 21.4933 321.725 19.808 325.522 19.808C326.973 19.808 328.296 20.064 329.49 20.576C330.685 21.088 331.517 21.5787 331.986 22.048C332.456 22.4747 332.84 22.9013 333.138 23.328ZM321.49 36.64C321.49 38.048 322.045 39.328 323.154 40.48C324.264 41.5893 325.608 42.144 327.186 42.144C328.765 42.144 330.066 41.568 331.09 40.416C332.157 39.264 332.69 38.0053 332.69 36.64C332.69 35.232 332.178 33.9307 331.154 32.736C330.173 31.5413 328.829 30.944 327.122 30.944C325.458 30.944 324.093 31.5413 323.026 32.736C322.002 33.9307 321.49 35.232 321.49 36.64ZM367.871 19.808C371.669 19.808 375.146 21.4933 378.303 24.864C381.503 28.2347 383.103 32.16 383.103 36.64C383.103 41.0773 381.525 44.9813 378.367 48.352C375.21 51.68 371.818 53.344 368.191 53.344C364.565 53.344 361.983 52.32 360.447 50.272C360.106 52.3627 358.271 53.408 354.943 53.408C352.255 53.408 350.613 52.832 350.015 51.68C349.717 51.04 349.525 50.4853 349.439 50.016C349.397 49.504 349.375 48.7573 349.375 47.776V9.56801C349.375 8.58668 349.397 7.86135 349.439 7.39201C349.525 6.88001 349.717 6.32535 350.015 5.72801C350.613 4.57601 352.277 4.00001 355.007 4.00001C357.695 4.00001 359.317 4.57601 359.871 5.72801C360.213 6.36801 360.405 6.94401 360.447 7.45601C360.533 7.92535 360.575 8.65068 360.575 9.63201V22.944C362.282 20.8533 364.714 19.808 367.871 19.808ZM362.239 40.48C363.306 41.632 364.629 42.208 366.207 42.208C367.786 42.208 369.13 41.632 370.239 40.48C371.349 39.328 371.903 38.048 371.903 36.64C371.903 35.232 371.391 33.952 370.367 32.8C369.343 31.6053 367.978 31.008 366.271 31.008C364.565 31.008 363.199 31.6053 362.175 32.8C361.194 33.9947 360.703 35.296 360.703 36.704C360.703 38.0693 361.215 39.328 362.239 40.48ZM387.506 50.464C386.696 49.952 386.29 49.1413 386.29 48.032C386.29 46.9227 387.101 45.2373 388.722 42.976C389.192 42.2507 389.938 41.888 390.962 41.888C392.029 41.888 393.458 42.4213 395.25 43.488C397.042 44.512 398.664 45.024 400.114 45.024C402.717 45.024 404.018 44.512 404.018 43.488C404.018 42.6773 402.589 42.08 399.73 41.696C397.042 41.312 394.376 40.3093 391.73 38.688C390.493 37.92 389.469 36.7253 388.658 35.104C387.848 33.44 387.442 31.4773 387.442 29.216C387.442 22.4747 392.072 19.104 401.33 19.104C404.36 19.104 407.474 19.8293 410.674 21.28C412.168 21.9627 412.914 22.816 412.914 23.84C412.914 24.864 412.445 26.1227 411.506 27.616C410.568 29.1093 409.608 29.856 408.626 29.856C408.114 29.856 407.154 29.536 405.746 28.896C404.381 28.256 402.888 27.936 401.266 27.936C398.749 27.936 397.49 28.4053 397.49 29.344C397.49 30.624 398.941 31.456 401.842 31.84C404.658 32.1387 407.389 32.9493 410.034 34.272C411.272 34.8693 412.296 35.9147 413.106 37.408C413.96 38.8587 414.386 40.6933 414.386 42.912C414.386 45.1307 413.96 47.0293 413.106 48.608C412.296 50.144 411.144 51.296 409.65 52.064C406.92 53.3867 403.485 54.048 399.346 54.048C395.25 54.048 391.304 52.8533 387.506 50.464Z" fill="#FDCB63"/>
<path d="M53.8564 8.35201L50.3054 10.1933L50.3161 10.2139L50.327 10.2344L53.8564 8.35201ZM54.4324 10.08L50.4463 10.4122L50.4599 10.5757L50.4869 10.7376L54.4324 10.08ZM52.1284 53.024L53.333 56.8383L52.1284 53.024ZM46.1124 53.088L44.9838 56.9255H44.9838L46.1124 53.088ZM44.4484 52.32L46.9042 49.1626V49.1626L44.4484 52.32ZM43.5524 51.04L39.715 52.1687L39.7608 52.3244L39.819 52.4759L43.5524 51.04ZM43.2324 26.272H47.2324V14.9401L40.1188 23.761L43.2324 26.272ZM38.5604 32.608L41.8121 34.9376L41.8202 34.9262L41.8283 34.9147L38.5604 32.608ZM34.6564 37.984L37.8339 40.4138L37.8339 40.4138L34.6564 37.984ZM33.5044 39.52L36.5773 42.0808L36.6727 41.9663L36.7594 41.845L33.5044 39.52ZM31.9044 40.672L33.9086 44.1337L33.9356 44.1181L33.9624 44.102L31.9044 40.672ZM26.5924 40.736L24.5066 44.1491L24.616 44.216L24.7294 44.2757L26.5924 40.736ZM24.9284 39.392L21.6935 41.7447L21.7475 41.819L21.805 41.8908L24.9284 39.392ZM24.4164 38.688L27.6514 36.3353L27.5973 36.261L27.5399 36.1892L24.4164 38.688ZM19.3604 31.904L16.1135 34.2402L16.1203 34.2497L16.1272 34.2591L19.3604 31.904ZM15.2644 26.272L18.3373 23.7113L11.2644 15.2239V26.272H15.2644ZM15.1364 50.08L11.1909 49.4224L11.1664 49.5694L11.1529 49.7179L15.1364 50.08ZM14.5604 51.68L11.0875 49.6955L11.0755 49.7164L11.0638 49.7374L14.5604 51.68ZM4.70443 51.68L8.20106 49.7374L8.18936 49.7164L8.1774 49.6955L4.70443 51.68ZM4.06443 50.016L0.0782467 50.3482L0.0918751 50.5117L0.118854 50.6736L4.06443 50.016ZM4.06443 10.016L0.118854 9.35842L0.0943509 9.50544L0.0808569 9.65387L4.06443 10.016ZM4.70443 8.28801L1.23969 6.28912L1.20638 6.34686L1.17502 6.40566L4.70443 8.28801ZM12.6404 7.07201L11.2576 10.8254L11.3731 10.8679L11.491 10.9033L12.6404 7.07201ZM14.3044 7.90401L11.2674 10.5072L11.3674 10.6238L11.476 10.7324L14.3044 7.90401ZM14.6884 8.28801L17.8704 5.86416L17.7072 5.64997L17.5169 5.45958L14.6884 8.28801ZM29.2164 27.36L26.0345 29.7839L29.2294 33.9781L32.4079 29.7713L29.2164 27.36ZM43.7444 8.35201L46.8806 10.8348L47.0145 10.6657L47.1294 10.4833L43.7444 8.35201ZM53.8564 8.35201L50.327 10.2344C50.4117 10.3932 50.4488 10.4901 50.4617 10.5289C50.4746 10.5678 50.4556 10.5249 50.4463 10.4122L54.4324 10.08L58.4186 9.74782C58.3162 8.51872 57.8854 7.40639 57.3858 6.46967L53.8564 8.35201ZM54.4324 10.08L50.4869 10.7376C50.517 10.9184 50.5604 11.4016 50.5604 12.32H54.5604H58.5604C58.5604 11.2758 58.5185 10.2656 58.378 9.42243L54.4324 10.08ZM54.5604 12.32H50.5604V47.84H54.5604H58.5604V12.32H54.5604ZM54.5604 47.84H50.5604C50.5604 48.3992 50.5214 48.8243 50.4673 49.1362C50.4129 49.4501 50.3511 49.6025 50.3311 49.6451C50.3151 49.6793 50.3507 49.5913 50.4825 49.4698C50.6227 49.3407 50.7859 49.2533 50.9239 49.2097L52.1284 53.024L53.333 56.8383C57.6717 55.4682 58.5604 51.0867 58.5604 47.84H54.5604ZM52.1284 53.024L50.9239 49.2097C50.6363 49.3005 50.0537 49.408 49.0564 49.408V53.408V57.408C50.5339 57.408 51.9992 57.2595 53.333 56.8383L52.1284 53.024ZM49.0564 53.408V49.408C47.9913 49.408 47.442 49.3096 47.2411 49.2506L46.1124 53.088L44.9838 56.9255C46.2336 57.2931 47.6469 57.408 49.0564 57.408V53.408ZM46.1124 53.088L47.2411 49.2506C47.0237 49.1866 46.8929 49.1338 46.8287 49.1042C46.7614 49.0731 46.8033 49.0841 46.9042 49.1626L44.4484 52.32L41.9927 55.4774C42.9296 56.2062 44.0148 56.6405 44.9838 56.9255L46.1124 53.088ZM44.4484 52.32L46.9042 49.1626C47.2099 49.4004 47.2957 49.6298 47.2858 49.6041L43.5524 51.04L39.819 52.4759C40.2358 53.5595 40.9189 54.6423 41.9927 55.4774L44.4484 52.32ZM43.5524 51.04L47.3899 49.9114C47.3443 49.7564 47.2324 49.119 47.2324 47.712H43.2324H39.2324C39.2324 49.2917 39.3339 50.873 39.715 52.1687L43.5524 51.04ZM43.2324 47.712H47.2324V26.272H43.2324H39.2324V47.712H43.2324ZM43.2324 26.272L40.1188 23.761C38.9674 25.1887 37.3489 27.3881 35.2926 30.3013L38.5604 32.608L41.8283 34.9147C43.868 32.0252 45.3641 30.0006 46.3461 28.783L43.2324 26.272ZM38.5604 32.608L35.3088 30.2785C33.2482 33.1548 31.9874 34.8893 31.479 35.5542L34.6564 37.984L37.8339 40.4138C38.4348 39.628 39.7767 37.7786 41.8121 34.9376L38.5604 32.608ZM34.6564 37.984L31.479 35.5542C30.9253 36.2783 30.5051 36.8373 30.2495 37.1951L33.5044 39.52L36.7594 41.845C36.9305 41.6054 37.2783 41.1404 37.8339 40.4138L34.6564 37.984ZM33.5044 39.52L30.4316 36.9593C30.5711 36.7918 30.6768 36.7028 30.6813 36.699C30.6965 36.6859 30.6773 36.7034 30.6072 36.7539C30.4643 36.8568 30.2207 37.0175 29.8464 37.242L31.9044 40.672L33.9624 44.102C34.4415 43.8145 34.8912 43.5272 35.2816 43.2462C35.6112 43.0089 36.136 42.6103 36.5773 42.0808L33.5044 39.52ZM31.9044 40.672L29.9003 37.2103C29.7282 37.3099 29.5289 37.376 29.2164 37.376V41.376V45.376C30.8666 45.376 32.4593 44.9728 33.9086 44.1337L31.9044 40.672ZM29.2164 41.376V37.376C28.9103 37.376 28.6771 37.313 28.4554 37.1963L26.5924 40.736L24.7294 44.2757C26.1291 45.0123 27.6452 45.376 29.2164 45.376V41.376ZM26.5924 40.736L28.6782 37.3229C28.4065 37.1568 28.2256 37.0265 28.1138 36.9362C27.9974 36.8422 27.9969 36.8245 28.0519 36.8932L24.9284 39.392L21.805 41.8908C22.5638 42.8393 23.5646 43.5734 24.5066 44.1491L26.5924 40.736ZM24.9284 39.392L28.1634 37.0393L27.6514 36.3353L24.4164 38.688L21.1815 41.0407L21.6935 41.7447L24.9284 39.392ZM24.4164 38.688L27.5399 36.1892C26.7531 35.2057 25.1216 33.0195 22.5936 29.549L19.3604 31.904L16.1272 34.2591C18.634 37.7006 20.3731 40.037 21.293 41.1868L24.4164 38.688ZM19.3604 31.904L22.6073 29.5678C20.1701 26.1805 18.6707 24.1114 18.3373 23.7113L15.2644 26.272L12.1916 28.8328C12.1891 28.8299 12.476 29.2107 13.2135 30.2247C13.8901 31.1551 14.8561 32.4926 16.1135 34.2402L19.3604 31.904ZM15.2644 26.272H11.2644V47.84H15.2644H19.2644V26.272H15.2644ZM15.2644 47.84H11.2644C11.2644 48.7585 11.221 49.2416 11.1909 49.4224L15.1364 50.08L19.082 50.7376C19.2225 49.8945 19.2644 48.8842 19.2644 47.84H15.2644ZM15.1364 50.08L11.1529 49.7179C11.1605 49.6342 11.1725 49.5716 11.1817 49.5325C11.1908 49.4935 11.1978 49.4746 11.1969 49.4771C11.196 49.4796 11.1886 49.4995 11.1707 49.5375C11.1528 49.5755 11.126 49.628 11.0875 49.6955L14.5604 51.68L18.0334 53.6646C18.5389 52.7799 19.0072 51.6829 19.12 50.4422L15.1364 50.08ZM14.5604 51.68L11.0638 49.7374C11.3635 49.198 11.743 49.1202 11.524 49.1961C11.2732 49.2829 10.6762 49.408 9.56843 49.408V53.408V57.408C11.1486 57.408 12.7277 57.2451 14.1409 56.756C15.5858 56.2558 17.1173 55.3141 18.0571 53.6226L14.5604 51.68ZM9.56843 53.408V49.408C8.51376 49.408 7.95929 49.2849 7.73949 49.2068C7.55991 49.143 7.91888 49.2295 8.20106 49.7374L4.70443 51.68L1.2078 53.6226C2.12998 55.2825 3.61961 56.233 5.06137 56.7452C6.4629 57.2431 8.02044 57.408 9.56843 57.408V53.408ZM4.70443 51.68L8.1774 49.6955C8.09201 49.546 8.04541 49.4415 8.02181 49.3801C7.9983 49.319 8.00252 49.3135 8.01001 49.3584L4.06443 50.016L0.118854 50.6736C0.302716 51.7768 0.727307 52.7823 1.23146 53.6646L4.70443 51.68ZM4.06443 50.016L8.05061 49.6838C8.02226 49.3436 8.00043 48.711 8.00043 47.712H4.00043H0.000429869C0.000429869 48.761 0.0212704 49.6645 0.0782467 50.3482L4.06443 50.016ZM4.00043 47.712H8.00043V12.192H4.00043H0.000429869V47.712H4.00043ZM4.00043 12.192H8.00043C8.00043 11.2316 8.02263 10.6573 8.048 10.3782L4.06443 10.016L0.0808569 9.65387C0.0208981 10.3134 0.000429869 11.1897 0.000429869 12.192H4.00043ZM4.06443 10.016L8.01001 10.6736C8.00435 10.7075 8.00513 10.6819 8.03942 10.5893C8.07344 10.4974 8.13336 10.3588 8.23384 10.1704L4.70443 8.28801L1.17502 6.40566C0.704204 7.28844 0.297665 8.28555 0.118854 9.35842L4.06443 10.016ZM4.70443 8.28801L8.16917 10.2869C7.84482 10.8491 7.44872 10.9176 7.69734 10.8347C7.96505 10.7455 8.57874 10.624 9.69643 10.624V6.62401V2.62401C8.12612 2.62401 6.56381 2.77985 5.16752 3.24528C3.75214 3.71707 2.20404 4.61758 1.23969 6.28912L4.70443 8.28801ZM9.69643 6.62401V10.624C10.5244 10.624 11.01 10.7342 11.2576 10.8254L12.6404 7.07201L14.0233 3.31864C12.6495 2.81254 11.1724 2.62401 9.69643 2.62401V6.62401ZM12.6404 7.07201L11.491 10.9033C11.63 10.945 11.7338 10.9807 11.8075 11.0087C11.8826 11.0371 11.9124 11.0521 11.9076 11.0497C11.9052 11.0485 11.8408 11.0167 11.7396 10.9447C11.6413 10.8749 11.4629 10.7353 11.2674 10.5072L14.3044 7.90401L17.3415 5.30086C16.7245 4.58112 15.9952 4.14928 15.4853 3.89431C14.9351 3.61919 14.3501 3.4088 13.7898 3.24071L12.6404 7.07201ZM14.3044 7.90401L11.476 10.7324L11.86 11.1164L14.6884 8.28801L17.5169 5.45958L17.1328 5.07558L14.3044 7.90401ZM14.6884 8.28801L11.5065 10.7119L26.0345 29.7839L29.2164 27.36L32.3984 24.9362L17.8704 5.86416L14.6884 8.28801ZM29.2164 27.36L32.4079 29.7713C39.6663 20.1647 44.4815 13.8653 46.8806 10.8348L43.7444 8.35201L40.6082 5.8692C38.1434 8.98274 33.2733 15.3553 26.025 24.9487L29.2164 27.36ZM43.7444 8.35201L47.1294 10.4833C46.8631 10.9061 46.5826 10.9354 46.8475 10.846C47.1391 10.7476 47.7629 10.624 48.8644 10.624V6.62401V2.62401C46.0625 2.62401 42.301 3.13718 40.3595 6.22076L43.7444 8.35201ZM48.8644 6.62401V10.624C50.0019 10.624 50.6063 10.7509 50.852 10.836C51.0678 10.9107 50.6257 10.8111 50.3054 10.1933L53.8564 8.35201L57.4075 6.51075C56.4898 4.74097 54.9171 3.77737 53.4689 3.27607C52.0506 2.78512 50.4577 2.62401 48.8644 2.62401V6.62401ZM81.5759 23.328L78.299 25.6219L84.4167 34.3614L85.5532 23.7541L81.5759 23.328ZM90.3439 20.128L91.5485 16.3137H91.5484L90.3439 20.128ZM92.0079 21.472L88.3832 23.1635L88.4283 23.2602L88.4785 23.3544L92.0079 21.472ZM92.5839 23.2L88.5977 23.5322L88.6138 23.7251L88.6485 23.9156L92.5839 23.2ZM92.5839 50.016L88.6384 49.3584L88.6139 49.5054L88.6004 49.6539L92.5839 50.016ZM92.0719 51.68L95.5938 53.5764L95.6482 53.4755L95.6967 53.3716L92.0719 51.68ZM82.9839 52.512L80.5282 55.6694L80.6245 55.7443L80.7252 55.8132L82.9839 52.512ZM81.6399 49.952L85.6136 49.4935L84.4034 39.0057L78.3601 47.6623L81.6399 49.952ZM63.4639 48.288L60.5446 51.0225V51.0225L63.4639 48.288ZM63.4639 24.864L60.563 22.11L60.5621 22.111L63.4639 24.864ZM77.9279 20.576L76.3522 24.2526L76.3523 24.2526L77.9279 20.576ZM80.4239 22.048L77.5955 24.8764L77.6628 24.9437L77.7332 25.0078L80.4239 22.048ZM71.5919 40.48L68.7106 43.2546L68.7368 43.2818L68.7635 43.3084L71.5919 40.48ZM79.5279 40.416L76.5929 37.6984L76.5653 37.7282L76.5383 37.7586L79.5279 40.416ZM79.5919 32.736L76.501 35.275L76.5276 35.3074L76.5549 35.3392L79.5919 32.736ZM71.4639 32.736L68.4802 30.072L68.4532 30.1021L68.4269 30.1329L71.4639 32.736ZM81.5759 23.328L85.5532 23.7541C85.5714 23.5838 85.599 23.5805 85.5531 23.6651C85.4997 23.7637 85.4168 23.8525 85.3451 23.9033C85.2883 23.9436 85.3205 23.9017 85.53 23.8496C85.7449 23.7961 86.099 23.744 86.6319 23.744V19.744V15.744C84.6424 15.744 82.5016 16.1129 80.7187 17.3767C78.784 18.7482 77.8269 20.772 77.5987 22.9019L81.5759 23.328ZM86.6319 19.744V23.744C88.1997 23.744 88.9334 23.8773 89.1394 23.9423L90.3439 20.128L91.5484 16.3137C90.1331 15.8667 88.3921 15.744 86.6319 15.744V19.744ZM90.3439 20.128L89.1394 23.9423C89.158 23.9482 89.0328 23.9117 88.8546 23.7678C88.6629 23.6129 88.4939 23.4008 88.3832 23.1635L92.0079 21.472L95.6327 19.7805C94.7648 17.9207 93.1916 16.8326 91.5485 16.3137L90.3439 20.128ZM92.0079 21.472L88.4785 23.3544C88.5632 23.5132 88.6003 23.6101 88.6132 23.6489C88.6261 23.6878 88.6071 23.6448 88.5977 23.5322L92.5839 23.2L96.5701 22.8678C96.4677 21.6387 96.0369 20.5264 95.5373 19.5897L92.0079 21.472ZM92.5839 23.2L88.6485 23.9156C88.6483 23.9145 88.6498 23.923 88.6526 23.9426C88.6553 23.962 88.6588 23.9896 88.6627 24.0262C88.6706 24.1004 88.6792 24.2008 88.6868 24.3309C88.7023 24.5938 88.7119 24.9386 88.7119 25.376H92.7119H96.7119C96.7119 24.3505 96.6724 23.3257 96.5194 22.4845L92.5839 23.2ZM92.7119 25.376H88.7119V47.776H92.7119H96.7119V25.376H92.7119ZM92.7119 47.776H88.7119C88.7119 48.6945 88.6685 49.1776 88.6384 49.3584L92.5839 50.016L96.5295 50.6736C96.67 49.8305 96.7119 48.8202 96.7119 47.776H92.7119ZM92.5839 50.016L88.6004 49.6539C88.6091 49.5575 88.6225 49.5371 88.6008 49.6077C88.5798 49.676 88.5347 49.801 88.4472 49.9885L92.0719 51.68L95.6967 53.3716C96.1031 52.5005 96.4676 51.4772 96.5675 50.3782L92.5839 50.016ZM92.0719 51.68L88.55 49.7836C88.6677 49.5652 88.8182 49.3995 88.9533 49.2908C89.0791 49.1897 89.1525 49.1687 89.1095 49.1849C89.064 49.2021 88.9304 49.2447 88.677 49.2816C88.4255 49.3181 88.0897 49.344 87.6559 49.344V53.344V57.344C90.2093 57.344 93.8551 56.8054 95.5938 53.5764L92.0719 51.68ZM87.6559 53.344V49.344C86.643 49.344 85.9299 49.2814 85.4612 49.198C84.9396 49.1051 84.9801 49.0311 85.2427 49.2108L82.9839 52.512L80.7252 55.8132C81.7984 56.5476 83.0229 56.8896 84.0586 57.0741C85.1473 57.2679 86.3649 57.344 87.6559 57.344V53.344ZM82.9839 52.512L85.4397 49.3546C85.4649 49.3742 85.4985 49.4048 85.5334 49.4464C85.5684 49.4881 85.5951 49.5296 85.6135 49.5647C85.6519 49.6377 85.6299 49.6352 85.6136 49.4935L81.6399 49.952L77.6663 50.4105C77.8976 52.4152 78.7851 54.3137 80.5282 55.6694L82.9839 52.512ZM81.6399 49.952L78.3601 47.6623C77.7742 48.5016 76.604 49.344 73.7039 49.344V53.344V57.344C78.2278 57.344 82.3484 55.9251 84.9198 52.2417L81.6399 49.952ZM73.7039 53.344V49.344C71.4125 49.344 68.9926 48.3392 66.3832 45.5535L63.4639 48.288L60.5446 51.0225C64.2499 54.9782 68.6567 57.344 73.7039 57.344V53.344ZM63.4639 48.288L66.3832 45.5535C63.8889 42.8907 62.7279 39.9528 62.7279 36.576H58.7279H54.7279C54.7279 42.0739 56.7243 46.944 60.5446 51.0225L63.4639 48.288ZM58.7279 36.576H62.7279C62.7279 33.1474 63.8948 30.2217 66.3658 27.6171L63.4639 24.864L60.5621 22.111C56.7184 26.1624 54.7279 31.0446 54.7279 36.576H58.7279ZM63.4639 24.864L66.3648 27.618C68.991 24.8518 71.4977 23.808 73.9599 23.808V19.808V15.808C68.8275 15.808 64.3369 18.1349 60.563 22.11L63.4639 24.864ZM73.9599 19.808V23.808C74.9319 23.808 75.7103 23.9775 76.3522 24.2526L77.9279 20.576L79.5036 16.8994C77.7562 16.1506 75.8893 15.808 73.9599 15.808V19.808ZM77.9279 20.576L76.3523 24.2526C76.8425 24.4627 77.1872 24.6386 77.416 24.7735C77.6606 24.9178 77.6804 24.9614 77.5955 24.8764L80.4239 22.048L83.2524 19.2196C82.2228 18.19 80.8049 17.4571 79.5036 16.8994L77.9279 20.576ZM80.4239 22.048L77.7332 25.0078C78.0287 25.2764 78.2025 25.484 78.299 25.6219L81.5759 23.328L84.8529 21.0342C84.352 20.3187 83.7578 19.673 83.1146 19.0883L80.4239 22.048ZM69.9279 36.64H65.9279C65.9279 39.2255 66.9891 41.4668 68.7106 43.2546L71.5919 40.48L74.4732 37.7054C73.9761 37.1892 73.9279 36.8705 73.9279 36.64H69.9279ZM71.5919 40.48L68.7635 43.3084C70.6283 45.1732 72.9919 46.144 75.6239 46.144V42.144V38.144C75.0986 38.144 74.7743 38.0055 74.4204 37.6516L71.5919 40.48ZM75.6239 42.144V46.144C78.3135 46.144 80.7137 45.1028 82.5176 43.0735L79.5279 40.416L76.5383 37.7586C76.2941 38.0333 76.0917 38.144 75.6239 38.144V42.144ZM79.5279 40.416L82.463 43.1336C84.1043 41.361 85.1279 39.164 85.1279 36.64H81.1279H77.1279C77.1279 36.8467 77.0849 37.167 76.5929 37.6984L79.5279 40.416ZM81.1279 36.64H85.1279C85.1279 34.1637 84.1963 31.9614 82.629 30.1329L79.5919 32.736L76.5549 35.3392C77.0356 35.9 77.1279 36.3003 77.1279 36.64H81.1279ZM79.5919 32.736L82.6828 30.1971C80.8565 27.9737 78.3225 26.944 75.5599 26.944V30.944V34.944C76.2106 34.944 76.3647 35.109 76.501 35.275L79.5919 32.736ZM75.5599 30.944V26.944C72.807 26.944 70.3387 27.9904 68.4802 30.072L71.4639 32.736L74.4477 35.4001C74.7225 35.0923 74.9849 34.944 75.5599 34.944V30.944ZM71.4639 32.736L68.4269 30.1329C66.8596 31.9614 65.9279 34.1637 65.9279 36.64H69.9279H73.9279C73.9279 36.3003 74.0203 35.9 74.501 35.3392L71.4639 32.736ZM119.189 49.248H123.189V37.3742L116.004 46.8277L119.189 49.248ZM101.461 47.584L98.5392 50.316L98.5576 50.3356L98.5761 50.3549L101.461 47.584ZM101.525 24.672L104.428 27.424V27.424L101.525 24.672ZM115.733 20.576L114.048 24.204L114.103 24.2291L114.157 24.2526L115.733 20.576ZM118.165 22.048L115.205 24.7387L115.333 24.8796L115.474 25.0078L118.165 22.048ZM119.253 23.264L115.925 25.4828L122.053 34.6755L123.23 23.6901L119.253 23.264ZM120.533 20.576L123.076 23.6637L123.085 23.6563L123.094 23.6489L120.533 20.576ZM127.829 20L126.564 23.7947L126.564 23.7948L127.829 20ZM129.429 21.344L125.804 23.0356L125.874 23.1852L125.956 23.3286L129.429 21.344ZM130.005 22.944L126.021 23.3062L126.038 23.4839L126.069 23.6595L130.005 22.944ZM125.013 63.456L122.379 60.4457L122.368 60.455L122.358 60.4643L125.013 63.456ZM104.213 65.632L102.323 69.1572V69.1572L104.213 65.632ZM101.717 56.928L104.545 59.7564L104.616 59.6858L104.683 59.6117L101.717 56.928ZM103.573 55.072L101.22 51.8371L101.146 51.8911L101.074 51.9485L103.573 55.072ZM107.029 55.328L104.53 58.4515L104.558 58.474L104.587 58.4961L107.029 55.328ZM117.653 55.776L120.776 58.2748V58.2748L117.653 55.776ZM109.397 39.904L106.514 42.6764L106.541 42.7047L106.569 42.7324L109.397 39.904ZM117.269 39.904L120.208 42.6171L120.234 42.5895L120.259 42.5615L117.269 39.904ZM117.333 32.416L114.242 34.955L114.265 34.9826L114.288 35.0099L117.333 32.416ZM119.189 49.248L116.004 46.8277C115.369 47.6633 114.173 48.448 111.445 48.448V52.448V56.448C115.8 56.448 119.766 55.0994 122.374 51.6683L119.189 49.248ZM111.445 52.448V48.448C109.268 48.448 106.921 47.4944 104.346 44.8131L101.461 47.584L98.5761 50.3549C102.23 54.1589 106.539 56.448 111.445 56.448V52.448ZM101.461 47.584L104.383 44.852C101.978 42.2802 100.853 39.4286 100.853 36.128H96.8529H92.8529C92.8529 41.5314 94.8001 46.3171 98.5392 50.316L101.461 47.584ZM96.8529 36.128H100.853C100.853 32.8447 101.986 29.9994 104.428 27.424L101.525 24.672L98.6221 21.92C94.8343 25.9153 92.8529 30.7074 92.8529 36.128H96.8529ZM101.525 24.672L104.428 27.424C106.965 24.7476 109.385 23.744 111.765 23.744V19.744V15.744C106.721 15.744 102.314 18.0258 98.6221 21.92L101.525 24.672ZM111.765 19.744V23.744C112.693 23.744 113.433 23.9183 114.048 24.204L115.733 20.576L117.417 16.948C115.643 16.1244 113.738 15.744 111.765 15.744V19.744ZM115.733 20.576L114.157 24.2526C114.642 24.4602 114.966 24.6289 115.166 24.75C115.387 24.8839 115.345 24.8928 115.205 24.7387L118.165 22.048L121.125 19.3573C120.086 18.2146 118.591 17.4492 117.309 16.8994L115.733 20.576ZM118.165 22.048L115.474 25.0078C115.785 25.2901 115.903 25.4509 115.925 25.4828L119.253 23.264L122.581 21.0452C122.09 20.3092 121.484 19.6592 120.856 19.0883L118.165 22.048ZM119.253 23.264L123.23 23.6901C123.256 23.45 123.297 23.3807 123.28 23.4157C123.271 23.4346 123.25 23.4738 123.212 23.5232C123.173 23.5733 123.127 23.6216 123.076 23.6637L120.533 20.576L117.99 17.4883C116.249 18.9224 115.483 20.9056 115.276 22.8379L119.253 23.264ZM120.533 20.576L123.094 23.6489C122.927 23.7874 122.856 23.7726 123.039 23.7243C123.228 23.6747 123.589 23.616 124.181 23.616V19.616V15.616C122.155 15.616 119.802 15.9782 117.972 17.5031L120.533 20.576ZM124.181 19.616V23.616C124.919 23.616 125.493 23.6448 125.922 23.69C126.135 23.7124 126.294 23.737 126.409 23.7591C126.526 23.7818 126.572 23.7973 126.564 23.7947L127.829 20L129.094 16.2053C127.681 15.7342 125.92 15.616 124.181 15.616V19.616ZM127.829 20L126.564 23.7948C126.546 23.7888 126.409 23.7391 126.232 23.5908C126.046 23.4345 125.898 23.2362 125.804 23.0356L129.429 21.344L133.054 19.6525C132.221 17.8683 130.737 16.753 129.094 16.2053L127.829 20ZM129.429 21.344L125.956 23.3286C125.995 23.3961 126.021 23.4486 126.039 23.4865C126.057 23.5245 126.064 23.5444 126.065 23.5469C126.066 23.5494 126.059 23.5305 126.05 23.4915C126.041 23.4524 126.029 23.3898 126.021 23.3062L130.005 22.944L133.989 22.5819C133.876 21.3411 133.407 20.2441 132.902 19.3595L129.429 21.344ZM130.005 22.944L126.069 23.6595C126.069 23.6585 126.071 23.667 126.074 23.6866C126.076 23.706 126.08 23.7336 126.084 23.7701C126.092 23.8444 126.1 23.9447 126.108 24.0749C126.123 24.3377 126.133 24.6826 126.133 25.12H130.133H134.133C134.133 24.0945 134.093 23.0697 133.94 22.2285L130.005 22.944ZM130.133 25.12H126.133V51.616H130.133H134.133V25.12H130.133ZM130.133 51.616H126.133C126.133 55.4757 124.847 58.286 122.379 60.4457L125.013 63.456L127.647 66.4663C132.005 62.6527 134.133 57.5696 134.133 51.616H130.133ZM125.013 63.456L122.358 60.4643C119.621 62.8933 116.709 64 113.493 64V68V72C118.81 72 123.578 70.0774 127.668 66.4477L125.013 63.456ZM113.493 68V64C110.93 64 108.484 63.3836 106.103 62.1069L104.213 65.632L102.323 69.1572C105.83 71.0378 109.57 72 113.493 72V68ZM104.213 65.632L106.103 62.1069C104.781 61.3979 104.043 60.8513 103.687 60.5063C103.275 60.1062 103.797 60.4035 103.797 61.344H99.7969H95.7969C95.7969 63.5645 97.0544 65.2165 98.1144 66.2457C99.2311 67.3301 100.701 68.2875 102.323 69.1572L104.213 65.632ZM99.7969 61.344H103.797C103.797 60.8394 103.943 60.3589 104.545 59.7564L101.717 56.928L98.8885 54.0996C96.931 56.0571 95.7969 58.5207 95.7969 61.344H99.7969ZM101.717 56.928L104.683 59.6117C105.479 58.7315 105.915 58.3207 106.072 58.1955L103.573 55.072L101.074 51.9485C100.377 52.506 99.5757 53.3326 98.7508 54.2444L101.717 56.928ZM103.573 55.072L105.926 58.307C105.828 58.3779 105.698 58.4484 105.544 58.4977C105.391 58.5466 105.26 58.56 105.173 58.56V54.56V50.56C103.757 50.56 102.394 50.9831 101.22 51.8371L103.573 55.072ZM105.173 54.56V58.56C104.576 58.56 104.338 58.2977 104.53 58.4515L107.029 55.328L109.528 52.2045C108.44 51.3343 106.965 50.56 105.173 50.56V54.56ZM107.029 55.328L104.587 58.4961C107.273 60.5669 110.338 61.696 113.685 61.696V57.696V53.696C112.253 53.696 110.88 53.2464 109.471 52.16L107.029 55.328ZM113.685 57.696V61.696C116.537 61.696 119.003 60.4915 120.776 58.2748L117.653 55.776L114.529 53.2772C114.255 53.6206 114.076 53.696 113.685 53.696V57.696ZM117.653 55.776L120.776 58.2748C122.422 56.2181 123.189 53.7781 123.189 51.168H119.189H115.189C115.189 52.142 114.932 52.7739 114.529 53.2772L117.653 55.776ZM119.189 51.168H123.189V49.248H119.189H115.189V51.168H119.189ZM107.797 36.192H103.797C103.797 38.7253 104.829 40.9247 106.514 42.6764L109.397 39.904L112.28 37.1316C111.831 36.6646 111.797 36.3894 111.797 36.192H107.797ZM109.397 39.904L106.569 42.7324C108.41 44.5739 110.743 45.568 113.365 45.568V41.568V37.568C112.915 37.568 112.603 37.4528 112.225 37.0756L109.397 39.904ZM113.365 41.568V45.568C116.002 45.568 118.389 44.5882 120.208 42.6171L117.269 39.904L114.33 37.1909C114.101 37.4385 113.885 37.568 113.365 37.568V41.568ZM117.269 39.904L120.259 42.5615C121.819 40.8057 122.805 38.6536 122.805 36.192H118.805H114.805C114.805 36.3758 114.767 36.6983 114.279 37.2466L117.269 39.904ZM118.805 36.192H122.805C122.805 33.7713 121.904 31.6138 120.378 29.8222L117.333 32.416L114.288 35.0099C114.724 35.5222 114.805 35.8821 114.805 36.192H118.805ZM117.333 32.416L120.424 29.8771C118.619 27.6797 116.122 26.624 113.365 26.624V30.624V34.624C113.936 34.624 114.084 34.763 114.242 34.955L117.333 32.416ZM113.365 30.624V26.624C110.661 26.624 108.192 27.615 106.343 29.6946L109.333 32.352L112.323 35.0095C112.522 34.7851 112.741 34.624 113.365 34.624V30.624ZM109.333 32.352L106.343 29.6946C104.735 31.5038 103.797 33.7085 103.797 36.192H107.797H111.797C111.797 35.8595 111.883 35.5042 112.323 35.0095L109.333 32.352ZM139.474 48.48L136.437 51.0832L136.456 51.1043L136.474 51.1252L139.474 48.48ZM135.314 23.072L131.379 22.3565L131.347 22.5321L131.331 22.7099L135.314 23.072ZM135.89 21.408L132.339 19.5667L132.301 19.6408L132.266 19.7165L135.89 21.408ZM146.13 22.112L142.316 23.3165L142.348 23.4174L142.385 23.5165L146.13 22.112ZM147.986 40.672L145.158 43.5004L145.188 43.5305L145.219 43.56L147.986 40.672ZM156.114 40.608L153.344 37.7225L153.315 37.7507L153.286 37.7796L156.114 40.608ZM157.778 23.072L153.833 22.4144L153.808 22.5614L153.795 22.7099L157.778 23.072ZM158.418 21.344L161.948 23.2264L161.973 23.1799L161.996 23.1329L158.418 21.344ZM168.274 21.408L171.899 19.7165L171.864 19.6408L171.825 19.5667L168.274 21.408ZM168.786 23.136L164.8 23.4682L164.816 23.6611L164.851 23.8516L168.786 23.136ZM168.786 50.144L164.841 49.4864L164.816 49.6334L164.803 49.7819L168.786 50.144ZM168.21 51.744L171.675 53.7429L171.679 53.7357L171.683 53.7286L168.21 51.744ZM158.482 51.872L161.938 49.8565L161.934 49.8502L161.93 49.8439L158.482 51.872ZM157.842 49.248H161.842V34.1857L154.369 47.2635L157.842 49.248ZM156.69 50.528L153.969 47.5968V47.5968L156.69 50.528ZM154.962 51.936L157.135 55.2943L157.188 55.2604L157.239 55.2248L154.962 51.936ZM150.226 53.344V49.344C147.069 49.344 144.577 48.2193 142.475 45.8348L139.474 48.48L136.474 51.1252C140.089 55.2261 144.765 57.344 150.226 57.344V53.344ZM139.474 48.48L142.511 45.8769C140.371 43.38 139.25 40.3377 139.25 36.512H135.25H131.25C131.25 42.073 132.946 47.0093 136.437 51.0832L139.474 48.48ZM135.25 36.512H139.25V25.312H135.25H131.25V36.512H135.25ZM135.25 25.312H139.25C139.25 24.3029 139.273 23.7104 139.298 23.4342L135.314 23.072L131.331 22.7099C131.271 23.3723 131.25 24.2732 131.25 25.312H135.25ZM135.314 23.072L139.25 23.7876C139.249 23.7938 139.259 23.7386 139.302 23.6125C139.345 23.4884 139.413 23.3188 139.515 23.0996L135.89 21.408L132.266 19.7165C131.884 20.5335 131.547 21.4304 131.379 22.3565L135.314 23.072ZM135.89 21.408L139.441 23.2493C139.121 23.8671 138.679 23.9667 138.895 23.892C139.141 23.8069 139.745 23.68 140.882 23.68V19.68V15.68C139.289 15.68 137.696 15.8411 136.278 16.3321C134.83 16.8334 133.257 17.797 132.339 19.5667L135.89 21.408ZM140.882 19.68V23.68C141.455 23.68 141.892 23.7194 142.216 23.7747C142.541 23.8304 142.703 23.8942 142.753 23.9173C142.794 23.9365 142.708 23.9037 142.585 23.7718C142.454 23.6307 142.362 23.463 142.316 23.3165L146.13 22.112L149.945 20.9075C148.568 16.5475 144.133 15.68 140.882 15.68V19.68ZM146.13 22.112L142.385 23.5165C142.358 23.4455 142.403 23.5406 142.446 23.9074C142.486 24.2521 142.514 24.7337 142.514 25.376H146.514H150.514C150.514 23.7983 150.398 22.1009 149.876 20.7075L146.13 22.112ZM146.514 25.376H142.514V36.576H146.514H150.514V25.376H146.514ZM146.514 36.576H142.514C142.514 39.0951 143.243 41.5855 145.158 43.5004L147.986 40.672L150.815 37.8436C150.767 37.7958 150.514 37.5556 150.514 36.576H146.514ZM147.986 40.672L145.219 43.56C147.115 45.3772 149.514 46.144 152.018 46.144V42.144V38.144C151.195 38.144 150.906 37.9295 150.754 37.7841L147.986 40.672ZM152.018 42.144V46.144C154.582 46.144 157.036 45.3434 158.943 43.4364L156.114 40.608L153.286 37.7796C153.145 37.9206 152.868 38.144 152.018 38.144V42.144ZM156.114 40.608L158.885 43.4936C160.839 41.6173 161.714 39.1792 161.714 36.576H157.714H153.714C153.714 37.3008 153.523 37.5507 153.344 37.7225L156.114 40.608ZM157.714 36.576H161.714V25.248H157.714H153.714V36.576H157.714ZM157.714 25.248H161.714C161.714 24.2876 161.737 23.7133 161.762 23.4342L157.778 23.072L153.795 22.7099C153.735 23.3694 153.714 24.2457 153.714 25.248H157.714ZM157.778 23.072L161.724 23.7296C161.718 23.7635 161.719 23.7379 161.753 23.6453C161.787 23.5534 161.847 23.4148 161.948 23.2264L158.418 21.344L154.889 19.4617C154.418 20.3444 154.012 21.3416 153.833 22.4144L157.778 23.072ZM158.418 21.344L161.996 23.1329C161.64 23.8449 161.121 23.9617 161.346 23.8858C161.447 23.8516 161.656 23.7966 162.006 23.7522C162.352 23.7084 162.794 23.68 163.346 23.68V19.68V15.68C161.766 15.68 160.187 15.8334 158.787 16.3062C157.369 16.785 155.751 17.7338 154.841 19.5552L158.418 21.344ZM163.346 19.68V23.68C164.458 23.68 165.041 23.806 165.271 23.8867C165.466 23.9551 165.035 23.8506 164.723 23.2493L168.274 21.408L171.825 19.5667C170.916 17.8134 169.366 16.8449 167.918 16.3373C166.505 15.842 164.923 15.68 163.346 15.68V19.68ZM168.274 21.408L164.65 23.0995C164.729 23.2702 164.771 23.3879 164.791 23.4564C164.812 23.525 164.805 23.5259 164.8 23.4682L168.786 23.136L172.773 22.8038C172.679 21.6808 172.328 20.6355 171.899 19.7165L168.274 21.408ZM168.786 23.136L164.851 23.8516C164.851 23.8505 164.852 23.859 164.855 23.8786C164.858 23.898 164.861 23.9256 164.865 23.9622C164.873 24.0364 164.882 24.1367 164.889 24.2669C164.905 24.5298 164.914 24.8746 164.914 25.312H168.914H172.914C172.914 24.2865 172.875 23.2617 172.722 22.4205L168.786 23.136ZM168.914 25.312H164.914V47.968H168.914H172.914V25.312H168.914ZM168.914 47.968H164.914C164.914 48.8322 164.872 49.2994 164.841 49.4864L168.786 50.144L172.732 50.8016C172.871 49.9647 172.914 48.9812 172.914 47.968H168.914ZM168.786 50.144L164.803 49.7819C164.81 49.6982 164.823 49.6356 164.832 49.5965C164.841 49.5575 164.848 49.5386 164.847 49.5411C164.846 49.5436 164.839 49.5635 164.821 49.6015C164.803 49.6395 164.776 49.692 164.737 49.7595L168.21 51.744L171.683 53.7286C172.189 52.8439 172.657 51.7469 172.77 50.5062L168.786 50.144ZM168.21 51.744L164.746 49.7451C165.061 49.1982 165.447 49.1251 165.219 49.2022C164.967 49.2874 164.374 49.408 163.282 49.408V53.408V57.408C164.836 57.408 166.388 57.2513 167.778 56.7818C169.192 56.3042 170.72 55.3991 171.675 53.7429L168.21 51.744ZM163.282 53.408V49.408C162.194 49.408 161.601 49.2949 161.35 49.2143C161.1 49.1346 161.564 49.2167 161.938 49.8565L158.482 51.872L155.027 53.8875C155.998 55.5513 157.56 56.4014 158.911 56.8337C160.26 57.2652 161.768 57.408 163.282 57.408V53.408ZM158.482 51.872L161.93 49.8439C161.928 49.8407 161.909 49.8084 161.889 49.7242C161.867 49.6361 161.842 49.4835 161.842 49.248H157.842H153.842C153.842 50.8308 154.175 52.4394 155.035 53.9001L158.482 51.872ZM157.842 49.248L154.369 47.2635C154.438 47.1427 154.491 47.0744 154.497 47.0662C154.506 47.0539 154.495 47.0696 154.453 47.1162C154.367 47.2125 154.213 47.3701 153.969 47.5968L156.69 50.528L159.412 53.4592C160.012 52.9026 160.811 52.1144 161.315 51.2326L157.842 49.248ZM156.69 50.528L153.969 47.5968C153.483 48.0476 153.055 48.3913 152.686 48.6472L154.962 51.936L157.239 55.2248C157.979 54.7128 158.703 54.1178 159.412 53.4592L156.69 50.528ZM154.962 51.936L152.789 48.5777C151.978 49.1031 151.152 49.344 150.226 49.344V53.344V57.344C152.714 57.344 155.046 56.6463 157.135 55.2943L154.962 51.936ZM174.127 23.2L170.181 22.5424L170.157 22.6894L170.143 22.8379L174.127 23.2ZM174.703 21.472L171.181 19.5756L171.127 19.6766L171.078 19.7805L174.703 21.472ZM184.047 20.896L181.456 23.9438L181.48 23.9639L181.504 23.9837L184.047 20.896ZM185.199 23.648L181.201 23.7859L181.206 23.9162L181.219 24.046L185.199 23.648ZM185.135 50.144L181.189 49.4864L181.165 49.6334L181.151 49.7819L185.135 50.144ZM184.559 51.808L181.03 49.9257L181.005 49.9721L180.981 50.0192L184.559 51.808ZM174.703 51.744L171.078 53.4356L171.113 53.5112L171.152 53.5853L174.703 51.744ZM174.127 50.08L170.143 50.4422L170.16 50.6199L170.191 50.7956L174.127 50.08ZM184.559 13.536L181.03 11.6537L181.005 11.7001L180.981 11.7472L184.559 13.536ZM182.895 14.816L181.69 11.0017V11.0017L182.895 14.816ZM176.431 14.816L177.635 11.0017V11.0017L176.431 14.816ZM174.703 13.472L171.078 15.1636L171.123 15.2602L171.174 15.3544L174.703 13.472ZM174.127 11.808L170.141 12.1402L170.157 12.3331L170.191 12.5236L174.127 11.808ZM174.127 7.39201L170.181 6.73442L170.157 6.88144L170.143 7.02987L174.127 7.39201ZM174.703 5.72801L171.152 3.88675L171.138 3.91285L171.125 3.93916L174.703 5.72801ZM184.559 5.72801L180.955 7.46327L180.991 7.53759L181.03 7.61036L184.559 5.72801ZM185.135 7.45601L181.149 7.7882L181.165 7.9811L181.199 8.17155L185.135 7.45601ZM185.135 11.872L181.189 11.2144L181.165 11.3614L181.151 11.5099L185.135 11.872ZM174.063 25.376H178.063C178.063 24.4156 178.085 23.8413 178.111 23.5622L174.127 23.2L170.143 22.8379C170.083 23.4974 170.063 24.3737 170.063 25.376H174.063ZM174.127 23.2L178.073 23.8576C178.081 23.8055 178.131 23.5846 178.328 23.1636L174.703 21.472L171.078 19.7805C170.677 20.6395 170.343 21.5705 170.181 22.5424L174.127 23.2ZM174.703 21.472L178.225 23.3684C177.878 24.0118 177.416 24.1012 177.664 24.0187C177.927 23.9311 178.548 23.808 179.695 23.808V19.808V15.808C178.111 15.808 176.535 15.9622 175.134 16.4293C173.717 16.9015 172.125 17.8229 171.181 19.5756L174.703 21.472ZM179.695 19.808V23.808C180.503 23.808 181.033 23.8816 181.349 23.9606C181.668 24.0404 181.629 24.0901 181.456 23.9438L184.047 20.896L186.638 17.8483C184.665 16.1717 181.995 15.808 179.695 15.808V19.808ZM184.047 20.896L181.504 23.9837C181.428 23.9213 181.358 23.8474 181.3 23.7675C181.242 23.6884 181.207 23.6203 181.189 23.5766C181.155 23.4944 181.193 23.5368 181.201 23.7859L185.199 23.648L189.197 23.5102C189.128 21.5118 188.46 19.3486 186.59 17.8083L184.047 20.896ZM185.199 23.648L181.219 24.046C181.241 24.2714 181.263 24.7316 181.263 25.504H185.263H189.263C189.263 24.6551 189.242 23.878 189.179 23.25L185.199 23.648ZM185.263 25.504H181.263V47.904H185.263H189.263V25.504H185.263ZM185.263 47.904H181.263C181.263 48.8225 181.219 49.3056 181.189 49.4864L185.135 50.144L189.081 50.8016C189.221 49.9585 189.263 48.9482 189.263 47.904H185.263ZM185.135 50.144L181.151 49.7819C181.159 49.7015 181.17 49.646 181.176 49.6185C181.182 49.591 181.185 49.5854 181.179 49.6036C181.165 49.6437 181.124 49.749 181.03 49.9257L184.559 51.808L188.088 53.6904C188.559 52.807 189.009 51.7154 189.118 50.5062L185.135 50.144ZM184.559 51.808L180.981 50.0192C181.337 49.3071 181.856 49.1903 181.631 49.2662C181.53 49.3005 181.322 49.3554 180.972 49.3998C180.626 49.4437 180.183 49.472 179.631 49.472V53.472V57.472C181.211 57.472 182.79 57.3186 184.191 56.8458C185.608 56.3671 187.226 55.4183 188.137 53.5969L184.559 51.808ZM179.631 53.472V49.472C178.52 49.472 177.937 49.346 177.707 49.2653C177.511 49.1969 177.942 49.3014 178.254 49.9027L174.703 51.744L171.152 53.5853C172.061 55.3386 173.612 56.3071 175.059 56.8147C176.472 57.31 178.054 57.472 179.631 57.472V53.472ZM174.703 51.744L178.328 50.0525C178.225 49.8333 178.158 49.6636 178.115 49.5396C178.071 49.4134 178.061 49.3582 178.062 49.3645L174.127 50.08L170.191 50.7956C170.36 51.7217 170.697 52.6185 171.078 53.4356L174.703 51.744ZM174.127 50.08L178.111 49.7179C178.085 49.4416 178.063 48.8492 178.063 47.84H174.063H170.063C170.063 48.8789 170.083 49.7798 170.143 50.4422L174.127 50.08ZM174.063 47.84H178.063V25.376H174.063H170.063V47.84H174.063ZM184.559 13.536L180.981 11.7472C181.115 11.4792 181.302 11.2707 181.48 11.1335C181.643 11.0079 181.743 10.9852 181.69 11.0017L182.895 14.816L184.099 18.6303C185.645 18.1422 187.23 17.1381 188.137 15.3249L184.559 13.536ZM182.895 14.816L181.69 11.0017C181.432 11.0832 180.803 11.2 179.631 11.2V15.2V19.2C181.189 19.2 182.736 19.0608 184.099 18.6303L182.895 14.816ZM179.631 15.2V11.2C178.516 11.2 177.903 11.0861 177.635 11.0017L176.431 14.816L175.226 18.6303C176.58 19.0579 178.1 19.2 179.631 19.2V15.2ZM176.431 14.816L177.635 11.0017C177.61 10.9935 177.704 11.0193 177.847 11.1306C177.999 11.2494 178.137 11.4109 178.232 11.5897L174.703 13.472L171.174 15.3544C172.091 17.0754 173.602 18.1175 175.226 18.6303L176.431 14.816ZM174.703 13.472L178.328 11.7805C178.225 11.5613 178.158 11.3916 178.115 11.2676C178.071 11.1414 178.061 11.0862 178.062 11.0925L174.127 11.808L170.191 12.5236C170.36 13.4497 170.697 14.3465 171.078 15.1636L174.703 13.472ZM174.127 11.808L178.113 11.4758C178.085 11.1327 178.063 10.5188 178.063 9.56801H174.063H170.063C170.063 10.5799 170.084 11.4593 170.141 12.1402L174.127 11.808ZM174.063 9.56801H178.063C178.063 8.60763 178.085 8.03328 178.111 7.75416L174.127 7.39201L170.143 7.02987C170.083 7.68942 170.063 8.56573 170.063 9.56801H174.063ZM174.127 7.39201L178.073 8.04961C178.077 8.02489 178.112 7.85416 178.281 7.51686L174.703 5.72801L171.125 3.93916C170.697 4.79653 170.348 5.73513 170.181 6.73442L174.127 7.39201ZM174.703 5.72801L178.254 7.56928C177.934 8.18705 177.492 8.28665 177.707 8.21196C177.953 8.12691 178.558 8.00001 179.695 8.00001V4.00001V1.14441e-05C178.102 1.14441e-05 176.509 0.161118 175.09 0.652069C173.642 1.15337 172.07 2.11697 171.152 3.88675L174.703 5.72801ZM179.695 4.00001V8.00001C180.229 8.00001 180.653 8.02895 180.981 8.07275C181.312 8.11704 181.503 8.17094 181.588 8.20122C181.673 8.23147 181.6 8.21894 181.455 8.10445C181.296 7.97803 181.1 7.76526 180.955 7.46327L184.559 5.72801L188.163 3.99275C187.288 2.17537 185.717 1.1783 184.266 0.662804C182.854 0.161106 181.268 1.14441e-05 179.695 1.14441e-05V4.00001ZM184.559 5.72801L181.03 7.61036C181.114 7.76923 181.151 7.86609 181.164 7.90493C181.177 7.94376 181.158 7.90085 181.149 7.7882L185.135 7.45601L189.121 7.12383C189.019 5.89472 188.588 4.78239 188.088 3.84566L184.559 5.72801ZM185.135 7.45601L181.199 8.17155C181.199 8.17046 181.201 8.17904 181.204 8.1986C181.206 8.21799 181.21 8.24556 181.214 8.28214C181.222 8.35637 181.23 8.45675 181.238 8.5869C181.253 8.84975 181.263 9.19456 181.263 9.63201H185.263H189.263C189.263 8.60645 189.223 7.58172 189.07 6.74048L185.135 7.45601ZM185.263 9.63201H181.263C181.263 10.5504 181.219 11.0336 181.189 11.2144L185.135 11.872L189.081 12.5296C189.221 11.6864 189.263 10.6762 189.263 9.63201H185.263ZM185.135 11.872L181.151 11.5099C181.159 11.4295 181.17 11.374 181.176 11.3465C181.182 11.319 181.185 11.3134 181.179 11.3316C181.165 11.3717 181.124 11.477 181.03 11.6537L184.559 13.536L188.088 15.4184C188.559 14.535 189.009 13.4434 189.118 12.2342L185.135 11.872ZM209.959 31.072L209.714 35.0645L209.836 35.072H209.959V31.072ZM205.799 30.816L206.045 26.8236L201.799 26.5623V30.816H205.799ZM206.311 42.144L202.983 44.3628L203.045 44.4552L203.111 44.544L206.311 42.144ZM210.663 43.04L210.006 46.9856L210.18 47.0147L210.357 47.0282L210.663 43.04ZM212.391 43.616L210.407 47.089L210.415 47.0936L210.423 47.0983L212.391 43.616ZM212.071 52.832L213.763 56.4567L213.812 56.4339L213.86 56.4097L212.071 52.832ZM210.343 53.408L210.706 57.3916L210.854 57.3781L211.001 57.3536L210.343 53.408ZM198.119 50.464L200.746 47.4468V47.4468L198.119 50.464ZM194.663 30.816H198.663V26.1349L194.04 26.865L194.663 30.816ZM189.671 29.92L186.584 32.4628L186.627 32.5154L186.672 32.5665L189.671 29.92ZM189.095 22.432L192.95 23.5026L192.957 23.4763L192.964 23.45L189.095 22.432ZM189.991 20.704L187.469 17.5996L187.4 17.6555L187.334 17.7144L189.991 20.704ZM192.551 19.872L193.033 15.9011L192.793 15.872H192.551V19.872ZM194.663 20.128L194.182 24.0989L198.663 24.6421V20.128H194.663ZM194.727 11.36L190.792 10.6445L190.76 10.8201L190.744 10.9979L194.727 11.36ZM195.367 9.82401L198.774 11.9204L198.85 11.7975L198.916 11.6694L195.367 9.82401ZM205.479 10.592L209.297 9.39891L209.276 9.33211L209.253 9.26607L205.479 10.592ZM205.799 20.128H201.799V24.5081L206.162 24.1116L205.799 20.128ZM212.199 20L211.484 23.9355L211.674 23.9701L211.867 23.9862L212.199 20ZM213.927 20.576L212.045 24.1054L212.092 24.1302L212.139 24.1537L213.927 20.576ZM213.863 30.432L215.555 34.0567L215.631 34.0215L215.705 33.983L213.863 30.432ZM212.135 31.008L212.498 34.9916L212.646 34.9781L212.793 34.9536L212.135 31.008ZM209.959 31.072L210.205 27.0796L206.045 26.8236L205.799 30.816L205.554 34.8085L209.714 35.0645L209.959 31.072ZM205.799 30.816H201.799V39.648H205.799H209.799V30.816H205.799ZM205.799 39.648H201.799C201.799 41.0023 201.964 42.8336 202.983 44.3628L206.311 42.144L209.64 39.9252C209.745 40.0835 209.8 40.2102 209.825 40.276C209.85 40.3418 209.853 40.3657 209.846 40.3322C209.839 40.2997 209.827 40.228 209.817 40.1092C209.807 39.9912 209.799 39.8389 209.799 39.648H205.799ZM206.311 42.144L203.111 44.544C204.586 46.5102 206.809 46.912 208.359 46.912V42.912V38.912C208.193 38.912 208.282 38.8872 208.516 38.9747C208.787 39.0764 209.184 39.3077 209.511 39.744L206.311 42.144ZM208.359 42.912V46.912C209.332 46.912 209.831 46.9564 210.006 46.9856L210.663 43.04L211.321 39.0944C210.472 38.953 209.435 38.912 208.359 38.912V42.912ZM210.663 43.04L210.357 47.0282C210.28 47.0223 210.241 47.0088 210.247 47.0107C210.254 47.0133 210.307 47.0321 210.407 47.089L212.391 43.616L214.376 40.143C213.383 39.5758 212.238 39.1493 210.97 39.0518L210.663 43.04ZM212.391 43.616L210.423 47.0983C210.137 46.9363 209.94 46.7372 209.823 46.5794C209.715 46.4332 209.694 46.3506 209.712 46.4028C209.73 46.455 209.771 46.5976 209.806 46.8612C209.84 47.122 209.863 47.4654 209.863 47.904H213.863H217.863C217.863 46.5169 217.722 45.0967 217.279 43.8053C216.825 42.4846 215.956 41.0361 214.36 40.1338L212.391 43.616ZM213.863 47.904H209.863C209.863 49.0053 209.734 49.5716 209.656 49.785C209.624 49.8727 209.632 49.8144 209.732 49.6892C209.842 49.5512 210.026 49.3826 210.283 49.2543L212.071 52.832L213.86 56.4097C215.628 55.5259 216.638 53.996 217.175 52.519C217.694 51.0897 217.863 49.4908 217.863 47.904H213.863ZM212.071 52.832L210.38 49.2073C209.959 49.4038 209.738 49.4538 209.686 49.4624L210.343 53.408L211.001 57.3536C211.973 57.1916 212.904 56.8576 213.763 56.4567L212.071 52.832ZM210.343 53.408L209.981 49.4244C209.699 49.4501 209.143 49.472 208.231 49.472V53.472V57.472C209.197 57.472 210.049 57.4513 210.706 57.3916L210.343 53.408ZM208.231 53.472V49.472C204.331 49.472 202.053 48.5845 200.746 47.4468L198.119 50.464L195.493 53.4812C198.794 56.3542 203.257 57.472 208.231 57.472V53.472ZM198.119 50.464L200.746 47.4468C199.707 46.5427 198.663 44.5582 198.663 40.288H194.663H190.663C190.663 45.5752 191.924 50.3746 195.493 53.4812L198.119 50.464ZM194.663 40.288H198.663V30.816H194.663H190.663V40.288H194.663ZM194.663 30.816L194.04 26.865C193.462 26.9561 192.798 27.008 192.039 27.008V31.008V35.008C193.158 35.008 194.243 34.9319 195.287 34.7671L194.663 30.816ZM192.039 31.008V27.008C192.099 27.008 192.243 27.023 192.413 27.1013C192.581 27.1782 192.664 27.2654 192.671 27.2735L189.671 29.92L186.672 32.5665C188.045 34.1224 189.914 35.008 192.039 35.008V31.008ZM189.671 29.92L192.759 27.3772C192.957 27.617 192.943 27.7377 192.888 27.5095C192.834 27.2883 192.775 26.8752 192.775 26.208H188.775H184.775C184.775 28.1852 185.068 30.6221 186.584 32.4628L189.671 29.92ZM188.775 26.208H192.775C192.775 24.4953 192.893 23.7073 192.95 23.5026L189.095 22.432L185.241 21.3614C184.872 22.6927 184.775 24.4221 184.775 26.208H188.775ZM189.095 22.432L192.964 23.45C193.016 23.2519 193.05 23.1963 193.03 23.2333C193.011 23.27 192.904 23.4665 192.649 23.6936L189.991 20.704L187.334 17.7144C186.096 18.8149 185.526 20.2776 185.227 21.414L189.095 22.432ZM189.991 20.704L192.514 23.8085C192.493 23.8251 192.468 23.8422 192.441 23.8572C192.413 23.8721 192.391 23.8804 192.38 23.8841C192.355 23.8921 192.401 23.872 192.551 23.872V19.872V15.872C190.767 15.872 188.979 16.3731 187.469 17.5996L189.991 20.704ZM192.551 19.872L192.07 23.8429L194.182 24.0989L194.663 20.128L195.145 16.1571L193.033 15.9011L192.551 19.872ZM194.663 20.128H198.663V13.536H194.663H190.663V20.128H194.663ZM194.663 13.536H198.663C198.663 12.5756 198.686 12.0013 198.711 11.7222L194.727 11.36L190.744 10.9979C190.684 11.6574 190.663 12.5337 190.663 13.536H194.663ZM194.727 11.36L198.663 12.0756C198.647 12.1644 198.63 12.1954 198.644 12.1625C198.657 12.1295 198.695 12.0494 198.774 11.9204L195.367 9.82401L191.961 7.72762C191.448 8.56116 190.992 9.54294 190.792 10.6445L194.727 11.36ZM195.367 9.82401L198.916 11.6694C198.532 12.4081 197.991 12.5129 198.251 12.4285C198.511 12.3441 199.136 12.224 200.295 12.224V8.22401V4.22401C198.725 4.22401 197.163 4.37062 195.78 4.81952C194.397 5.26847 192.757 6.1733 191.819 7.9786L195.367 9.82401ZM200.295 8.22401V12.224C200.846 12.224 201.267 12.2619 201.579 12.3151C201.893 12.3686 202.053 12.4302 202.105 12.4544C202.151 12.4752 202.076 12.4489 201.964 12.3321C201.843 12.2071 201.754 12.0555 201.706 11.918L205.479 10.592L209.253 9.26607C207.785 5.08631 203.511 4.22401 200.295 4.22401V8.22401ZM205.479 10.592L201.662 11.7851C201.656 11.7665 201.699 11.912 201.739 12.3103C201.775 12.6875 201.799 13.1962 201.799 13.856H205.799H209.799C209.799 12.2987 209.703 10.6956 209.297 9.39891L205.479 10.592ZM205.799 13.856H201.799V20.128H205.799H209.799V13.856H205.799ZM205.799 20.128L206.162 24.1116C208.013 23.9433 209.273 23.872 210.023 23.872V19.872V15.872C208.896 15.872 207.341 15.9714 205.437 16.1444L205.799 20.128ZM210.023 19.872V23.872C210.461 23.872 210.806 23.8816 211.069 23.8971C211.199 23.9048 211.299 23.9133 211.373 23.9212C211.41 23.9252 211.437 23.9287 211.457 23.9314C211.476 23.9341 211.485 23.9357 211.484 23.9355L212.199 20L212.915 16.0645C212.074 15.9116 211.049 15.872 210.023 15.872V19.872ZM212.199 20L211.867 23.9862C211.755 23.9768 211.712 23.9578 211.751 23.9707C211.789 23.9837 211.886 24.0207 212.045 24.1054L213.927 20.576L215.81 17.0466C214.873 16.547 213.761 16.1163 212.532 16.0138L212.199 20ZM213.927 20.576L212.139 24.1537C211.427 23.7977 211.31 23.2788 211.386 23.5037C211.42 23.6051 211.475 23.8134 211.519 24.1633C211.563 24.5092 211.591 24.9517 211.591 25.504H215.591H219.591C219.591 23.9238 219.438 22.3447 218.965 20.9443C218.486 19.5266 217.538 17.909 215.716 16.9983L213.927 20.576ZM215.591 25.504H211.591C211.591 26.6152 211.465 27.1984 211.385 27.4284C211.316 27.6235 211.421 27.1928 212.022 26.881L213.863 30.432L215.705 33.983C217.458 33.0739 218.427 31.5232 218.934 30.0756C219.429 28.663 219.591 27.0808 219.591 25.504H215.591ZM213.863 30.432L212.172 26.8073C211.751 27.0038 211.53 27.0538 211.478 27.0624L212.135 31.008L212.793 34.9536C213.765 34.7916 214.696 34.4576 215.555 34.0567L213.863 30.432ZM212.135 31.008L211.773 27.0244C211.494 27.0498 210.92 27.072 209.959 27.072V31.072V35.072C210.962 35.072 211.838 35.0515 212.498 34.9916L212.135 31.008ZM223.541 23.968L226.263 26.8992V26.8992L223.541 23.968ZM248.053 23.968L245.314 26.8829L245.324 26.8917L245.333 26.9004L248.053 23.968ZM250.613 46.048L253.934 48.2788L253.942 48.2669L253.95 48.255L250.613 46.048ZM243.893 52.128L245.659 55.7174L245.671 55.7116L245.682 55.7057L243.893 52.128ZM227.573 52L225.694 55.531L225.716 55.5429L225.739 55.5545L227.573 52ZM220.853 45.856L217.509 48.0506L217.529 48.081L217.55 48.111L220.853 45.856ZM231.541 41.248L229.079 44.4001L229.11 44.4244L229.141 44.448L231.541 41.248ZM239.925 41.184L237.51 37.9956V37.9956L239.925 41.184ZM240.053 31.776L237.605 34.9389V34.9389L240.053 31.776ZM231.477 31.84L228.966 28.7264V28.7264L231.477 31.84ZM218.165 36.64H222.165C222.165 32.5736 223.536 29.4313 226.263 26.8992L223.541 23.968L220.82 21.0368C216.378 25.1608 214.165 30.4665 214.165 36.64H218.165ZM223.541 23.968L226.263 26.8992C229.157 24.2119 232.297 22.976 235.829 22.976V18.976V14.976C230.146 14.976 225.094 17.0681 220.82 21.0368L223.541 23.968ZM235.829 18.976V22.976C239.36 22.976 242.47 24.21 245.314 26.8829L248.053 23.968L250.793 21.0532C246.554 17.07 241.515 14.976 235.829 14.976V18.976ZM248.053 23.968L245.333 26.9004C248.005 29.3794 249.365 32.494 249.365 36.576H253.365H257.365C257.365 30.418 255.184 25.1273 250.774 21.0356L248.053 23.968ZM253.365 36.576H249.365C249.365 39.386 248.65 41.7656 247.277 43.8411L250.613 46.048L253.95 48.255C256.246 44.7838 257.365 40.8487 257.365 36.576H253.365ZM250.613 46.048L247.293 43.8173C245.8 46.04 244.064 47.5704 242.105 48.5503L243.893 52.128L245.682 55.7057C249.013 54.0403 251.758 51.5173 253.934 48.2788L250.613 46.048ZM243.893 52.128L242.128 48.5386C240.058 49.5568 237.951 50.048 235.765 50.048V54.048V58.048C239.212 58.048 242.524 57.2592 245.659 55.7174L243.893 52.128ZM235.765 54.048V50.048C233.624 50.048 231.519 49.5353 229.408 48.4455L227.573 52L225.739 55.5545C228.918 57.1954 232.275 58.048 235.765 58.048V54.048ZM227.573 52L229.453 48.469C227.427 47.3906 225.659 45.8018 224.157 43.601L220.853 45.856L217.55 48.111C219.717 51.2862 222.43 53.7934 225.694 55.531L227.573 52ZM220.853 45.856L224.198 43.6614C222.853 41.613 222.165 39.3106 222.165 36.64H218.165H214.165C214.165 40.7961 215.27 44.6377 217.509 48.0506L220.853 45.856ZM231.541 41.248L229.141 44.448C231.049 45.8784 233.257 46.784 235.701 46.784V42.784V38.784C235.33 38.784 234.765 38.6657 233.941 38.048L231.541 41.248ZM235.701 42.784V46.784C238.183 46.784 240.417 45.8296 242.341 44.3724L239.925 41.184L237.51 37.9956C236.618 38.6718 236.036 38.784 235.701 38.784V42.784ZM239.925 41.184L242.341 44.3724C244.937 42.4057 246.037 39.5319 246.037 36.448H242.037H238.037C238.037 37.5455 237.73 37.829 237.51 37.9956L239.925 41.184ZM242.037 36.448H246.037C246.037 33.4608 245.045 30.5815 242.502 28.6131L240.053 31.776L237.605 34.9389C237.708 35.0185 238.037 35.2538 238.037 36.448H242.037ZM240.053 31.776L242.502 28.6131C240.545 27.0978 238.268 26.24 235.765 26.24V30.24V34.24C236.335 34.24 236.917 34.4062 237.605 34.9389L240.053 31.776ZM235.765 30.24V26.24C233.218 26.24 230.92 27.1509 228.966 28.7264L231.477 31.84L233.988 34.9537C234.68 34.3958 235.241 34.24 235.765 34.24V30.24ZM231.477 31.84L228.966 28.7264C226.487 30.726 225.493 33.5824 225.493 36.576H229.493H233.493C233.493 35.3883 233.823 35.0873 233.988 34.9537L231.477 31.84ZM229.493 36.576H225.493C225.493 39.604 226.561 42.4331 229.079 44.4001L231.541 41.248L234.004 38.0959C233.791 37.9296 233.493 37.644 233.493 36.576H229.493ZM285.016 44H281.016V48H285.016V44ZM305.496 44.512L303.614 48.0414L303.708 48.0916L303.804 48.1367L305.496 44.512ZM306.776 45.984L310.594 44.7909V44.7909L306.776 45.984ZM306.776 51.424L302.958 50.2309V50.2309L306.776 51.424ZM305.688 52.832L303.899 49.2543L303.862 49.2729L303.825 49.2923L305.688 52.832ZM274.072 51.04L277.886 49.8355L277.854 49.7346L277.817 49.6355L274.072 51.04ZM273.752 10.016L269.806 9.35842L269.782 9.50544L269.768 9.65387L273.752 10.016ZM274.392 8.28801L277.921 10.1704L277.932 10.1499L277.943 10.1293L274.392 8.28801ZM284.696 8.92801L288.533 7.79935L288.504 7.69989L288.47 7.60207L284.696 8.92801ZM285.016 44V48H302.424V44V40H285.016V44ZM302.424 44V48C302.98 48 303.357 48.0347 303.59 48.0736C303.843 48.1157 303.803 48.1423 303.614 48.0414L305.496 44.512L307.378 40.9826C305.834 40.159 303.98 40 302.424 40V44ZM305.496 44.512L303.804 48.1367C303.661 48.0699 303.462 47.9413 303.278 47.7287C303.094 47.5172 303 47.31 302.958 47.1771L306.776 45.984L310.594 44.7909C310.05 43.0504 308.861 41.6684 307.187 40.8873L305.496 44.512ZM306.776 45.984L302.958 47.1771C303 47.3113 303.096 47.7737 303.096 48.736H307.096H311.096C311.096 47.3944 310.979 46.022 310.594 44.7909L306.776 45.984ZM307.096 48.736H303.096C303.096 49.6377 303.003 50.0858 302.958 50.2309L306.776 51.424L310.594 52.6171C310.975 51.3969 311.096 50.053 311.096 48.736H307.096ZM306.776 51.424L302.958 50.2309C302.965 50.2099 303.017 50.0515 303.179 49.8422C303.352 49.6186 303.597 49.4052 303.899 49.2543L305.688 52.832L307.477 56.4097C309.192 55.5522 310.142 54.0623 310.594 52.6171L306.776 51.424ZM305.688 52.832L303.825 49.2923C303.838 49.2856 303.747 49.335 303.493 49.384C303.239 49.4328 302.869 49.472 302.36 49.472V53.472V57.472C304.1 57.472 305.939 57.2202 307.551 56.3717L305.688 52.832ZM302.36 53.472V49.472H279.32V53.472V57.472H302.36V53.472ZM279.32 53.472V49.472C278.747 49.472 278.31 49.4327 277.987 49.3774C277.661 49.3216 277.5 49.2578 277.45 49.2348C277.408 49.2155 277.495 49.2483 277.617 49.3802C277.749 49.5214 277.84 49.689 277.886 49.8355L274.072 51.04L270.258 52.2445C271.634 56.6045 276.069 57.472 279.32 57.472V53.472ZM274.072 51.04L277.817 49.6355C277.844 49.7066 277.8 49.6114 277.757 49.2447C277.716 48.8999 277.688 48.4183 277.688 47.776H273.688H269.688C269.688 49.3537 269.804 51.0511 270.327 52.4445L274.072 51.04ZM273.688 47.776H277.688V12.192H273.688H269.688V47.776H273.688ZM273.688 12.192H277.688C277.688 11.2316 277.71 10.6573 277.736 10.3782L273.752 10.016L269.768 9.65387C269.708 10.3134 269.688 11.1897 269.688 12.192H273.688ZM273.752 10.016L277.698 10.6736C277.692 10.7075 277.693 10.6819 277.727 10.5893C277.761 10.4974 277.821 10.3588 277.921 10.1704L274.392 8.28801L270.863 6.40566C270.392 7.28844 269.985 8.28555 269.806 9.35842L273.752 10.016ZM274.392 8.28801L277.943 10.1293C277.623 10.7471 277.181 10.8467 277.396 10.772C277.642 10.6869 278.247 10.56 279.384 10.56V6.56001V2.56001C277.791 2.56001 276.198 2.72112 274.779 3.21207C273.331 3.71338 271.759 4.67697 270.841 6.44675L274.392 8.28801ZM279.384 6.56001V10.56C280.589 10.56 281.152 10.729 281.323 10.8054C281.384 10.8323 281.313 10.8114 281.198 10.6946C281.074 10.5682 280.976 10.4082 280.922 10.254L284.696 8.92801L288.47 7.60207C286.987 3.38218 282.61 2.56001 279.384 2.56001V6.56001ZM284.696 8.92801L280.858 10.0567C280.904 10.2117 281.016 10.8491 281.016 12.256H285.016H289.016C289.016 10.6763 288.914 9.09502 288.533 7.79935L284.696 8.92801ZM285.016 12.256H281.016V44H285.016H289.016V12.256H285.016ZM333.138 23.328L329.862 25.6219L335.979 34.3614L337.116 23.7541L333.138 23.328ZM341.906 20.128L343.111 16.3137V16.3137L341.906 20.128ZM343.57 21.472L339.946 23.1635L339.991 23.2602L340.041 23.3544L343.57 21.472ZM344.146 23.2L340.16 23.5322L340.176 23.7251L340.211 23.9156L344.146 23.2ZM344.146 50.016L340.201 49.3584L340.176 49.5054L340.163 49.6539L344.146 50.016ZM343.634 51.68L347.156 53.5764L347.211 53.4755L347.259 53.3716L343.634 51.68ZM334.546 52.512L332.091 55.6694L332.187 55.7443L332.288 55.8132L334.546 52.512ZM333.202 49.952L337.176 49.4935L335.966 39.0057L329.923 47.6623L333.202 49.952ZM315.026 48.288L312.107 51.0225V51.0225L315.026 48.288ZM315.026 24.864L312.126 22.11L312.125 22.111L315.026 24.864ZM329.49 20.576L327.915 24.2526V24.2526L329.49 20.576ZM331.986 22.048L329.158 24.8764L329.225 24.9437L329.296 25.0078L331.986 22.048ZM323.154 40.48L320.273 43.2546L320.299 43.2818L320.326 43.3084L323.154 40.48ZM331.09 40.416L328.155 37.6984L328.128 37.7282L328.101 37.7586L331.09 40.416ZM331.154 32.736L328.064 35.275L328.09 35.3074L328.117 35.3392L331.154 32.736ZM323.026 32.736L320.043 30.072L320.016 30.1021L319.989 30.1329L323.026 32.736ZM333.138 23.328L337.116 23.7541C337.134 23.5838 337.161 23.5805 337.116 23.6651C337.062 23.7637 336.979 23.8525 336.908 23.9033C336.851 23.9436 336.883 23.9017 337.093 23.8496C337.307 23.7961 337.661 23.744 338.194 23.744V19.744V15.744C336.205 15.744 334.064 16.1129 332.281 17.3767C330.346 18.7482 329.389 20.772 329.161 22.9019L333.138 23.328ZM338.194 19.744V23.744C339.762 23.744 340.496 23.8773 340.702 23.9423L341.906 20.128L343.111 16.3137C341.696 15.8667 339.955 15.744 338.194 15.744V19.744ZM341.906 20.128L340.702 23.9423C340.72 23.9482 340.595 23.9117 340.417 23.7678C340.225 23.6129 340.056 23.4008 339.946 23.1635L343.57 21.472L347.195 19.7805C346.327 17.9207 344.754 16.8326 343.111 16.3137L341.906 20.128ZM343.57 21.472L340.041 23.3544C340.126 23.5132 340.163 23.6101 340.176 23.6489C340.189 23.6878 340.17 23.6448 340.16 23.5322L344.146 23.2L348.133 22.8678C348.03 21.6387 347.599 20.5264 347.1 19.5897L343.57 21.472ZM344.146 23.2L340.211 23.9156C340.211 23.9145 340.212 23.923 340.215 23.9426C340.218 23.962 340.221 23.9896 340.225 24.0262C340.233 24.1004 340.242 24.2008 340.249 24.3309C340.265 24.5938 340.274 24.9386 340.274 25.376H344.274H348.274C348.274 24.3505 348.235 23.3257 348.082 22.4845L344.146 23.2ZM344.274 25.376H340.274V47.776H344.274H348.274V25.376H344.274ZM344.274 47.776H340.274C340.274 48.6945 340.231 49.1776 340.201 49.3584L344.146 50.016L348.092 50.6736C348.233 49.8305 348.274 48.8202 348.274 47.776H344.274ZM344.146 50.016L340.163 49.6539C340.172 49.5575 340.185 49.5371 340.163 49.6077C340.142 49.676 340.097 49.801 340.01 49.9885L343.634 51.68L347.259 53.3716C347.666 52.5005 348.03 51.4772 348.13 50.3782L344.146 50.016ZM343.634 51.68L340.113 49.7836C340.23 49.5652 340.381 49.3995 340.516 49.2908C340.642 49.1897 340.715 49.1687 340.672 49.1849C340.626 49.2021 340.493 49.2447 340.239 49.2816C339.988 49.3181 339.652 49.344 339.218 49.344V53.344V57.344C341.772 57.344 345.418 56.8054 347.156 53.5764L343.634 51.68ZM339.218 53.344V49.344C338.206 49.344 337.492 49.2814 337.024 49.198C336.502 49.1051 336.543 49.0311 336.805 49.2108L334.546 52.512L332.288 55.8132C333.361 56.5476 334.585 56.8896 335.621 57.0741C336.71 57.2679 337.927 57.344 339.218 57.344V53.344ZM334.546 52.512L337.002 49.3546C337.027 49.3742 337.061 49.4048 337.096 49.4464C337.131 49.4881 337.158 49.5296 337.176 49.5647C337.214 49.6377 337.192 49.6352 337.176 49.4935L333.202 49.952L329.229 50.4105C329.46 52.4152 330.348 54.3137 332.091 55.6694L334.546 52.512ZM333.202 49.952L329.923 47.6623C329.337 48.5016 328.167 49.344 325.266 49.344V53.344V57.344C329.79 57.344 333.911 55.9251 336.482 52.2417L333.202 49.952ZM325.266 53.344V49.344C322.975 49.344 320.555 48.3392 317.946 45.5535L315.026 48.288L312.107 51.0225C315.812 54.9782 320.219 57.344 325.266 57.344V53.344ZM315.026 48.288L317.946 45.5535C315.451 42.8907 314.29 39.9528 314.29 36.576H310.29H306.29C306.29 42.0739 308.287 46.944 312.107 51.0225L315.026 48.288ZM310.29 36.576H314.29C314.29 33.1474 315.457 30.2217 317.928 27.6171L315.026 24.864L312.125 22.111C308.281 26.1624 306.29 31.0446 306.29 36.576H310.29ZM315.026 24.864L317.927 27.618C320.553 24.8518 323.06 23.808 325.522 23.808V19.808V15.808C320.39 15.808 315.899 18.1349 312.126 22.11L315.026 24.864ZM325.522 19.808V23.808C326.494 23.808 327.273 23.9775 327.915 24.2526L329.49 20.576L331.066 16.8994C329.319 16.1506 327.452 15.808 325.522 15.808V19.808ZM329.49 20.576L327.915 24.2526C328.405 24.4627 328.75 24.6386 328.978 24.7735C329.223 24.9178 329.243 24.9614 329.158 24.8764L331.986 22.048L334.815 19.2196C333.785 18.19 332.367 17.4571 331.066 16.8994L329.49 20.576ZM331.986 22.048L329.296 25.0078C329.591 25.2764 329.765 25.484 329.862 25.6219L333.138 23.328L336.415 21.0342C335.914 20.3187 335.32 19.673 334.677 19.0883L331.986 22.048ZM321.49 36.64H317.49C317.49 39.2255 318.552 41.4668 320.273 43.2546L323.154 40.48L326.036 37.7054C325.539 37.1892 325.49 36.8705 325.49 36.64H321.49ZM323.154 40.48L320.326 43.3084C322.191 45.1732 324.554 46.144 327.186 46.144V42.144V38.144C326.661 38.144 326.337 38.0055 325.983 37.6516L323.154 40.48ZM327.186 42.144V46.144C329.876 46.144 332.276 45.1028 334.08 43.0735L331.09 40.416L328.101 37.7586C327.857 38.0333 327.654 38.144 327.186 38.144V42.144ZM331.09 40.416L334.025 43.1336C335.667 41.361 336.69 39.164 336.69 36.64H332.69H328.69C328.69 36.8467 328.647 37.167 328.155 37.6984L331.09 40.416ZM332.69 36.64H336.69C336.69 34.1637 335.759 31.9614 334.191 30.1329L331.154 32.736L328.117 35.3392C328.598 35.9 328.69 36.3003 328.69 36.64H332.69ZM331.154 32.736L334.245 30.1971C332.419 27.9737 329.885 26.944 327.122 26.944V30.944V34.944C327.773 34.944 327.927 35.109 328.064 35.275L331.154 32.736ZM327.122 30.944V26.944C324.369 26.944 321.901 27.9904 320.043 30.072L323.026 32.736L326.01 35.4001C326.285 35.0923 326.547 34.944 327.122 34.944V30.944ZM323.026 32.736L319.989 30.1329C318.422 31.9614 317.49 34.1637 317.49 36.64H321.49H325.49C325.49 36.3003 325.583 35.9 326.063 35.3392L323.026 32.736ZM378.303 24.864L375.384 27.5985L375.393 27.6083L375.403 27.618L378.303 24.864ZM378.367 48.352L381.269 51.1051L381.278 51.0958L381.287 51.0866L378.367 48.352ZM360.447 50.272L363.647 47.872L358.013 40.3593L356.5 49.6275L360.447 50.272ZM350.015 51.68L346.391 53.3716L346.426 53.4472L346.464 53.5213L350.015 51.68ZM349.439 50.016L345.453 50.3482L345.469 50.5411L345.504 50.7316L349.439 50.016ZM349.439 7.39201L345.494 6.73442L345.469 6.88144L345.456 7.02987L349.439 7.39201ZM350.015 5.72801L346.464 3.88675L346.451 3.91285L346.438 3.93916L350.015 5.72801ZM359.871 5.72801L356.267 7.46327L356.303 7.53759L356.342 7.61036L359.871 5.72801ZM360.447 7.45601L356.461 7.7882L356.477 7.9811L356.512 8.17155L360.447 7.45601ZM360.575 22.944H356.575V34.1694L363.674 25.4735L360.575 22.944ZM362.239 40.48L359.25 43.1375L359.277 43.1678L359.304 43.1976L362.239 40.48ZM370.239 40.48L373.121 43.2546L373.121 43.2546L370.239 40.48ZM370.367 32.8L367.33 35.4032L367.354 35.4305L367.378 35.4575L370.367 32.8ZM362.175 32.8L359.138 30.1968L359.111 30.2287L359.085 30.2611L362.175 32.8ZM367.871 19.808V23.808C370.329 23.808 372.807 24.8472 375.384 27.5985L378.303 24.864L381.223 22.1295C377.485 18.1395 373.009 15.808 367.871 15.808V19.808ZM378.303 24.864L375.403 27.618C377.926 30.2762 379.103 33.2267 379.103 36.64H383.103H387.103C387.103 31.0934 385.081 26.1931 381.204 22.11L378.303 24.864ZM383.103 36.64H379.103C379.103 40.0168 377.942 42.9547 375.448 45.6175L378.367 48.352L381.287 51.0866C385.107 47.008 387.103 42.1379 387.103 36.64H383.103ZM378.367 48.352L375.466 45.599C372.851 48.3546 370.446 49.344 368.191 49.344V53.344V57.344C373.19 57.344 377.569 55.0054 381.269 51.1051L378.367 48.352ZM368.191 53.344V49.344C365.268 49.344 364.147 48.5383 363.647 47.872L360.447 50.272L357.247 52.672C359.82 56.1017 363.862 57.344 368.191 57.344V53.344ZM360.447 50.272L356.5 49.6275C356.5 49.6277 356.522 49.5125 356.625 49.3637C356.672 49.2955 356.723 49.2409 356.767 49.2012C356.811 49.1624 356.838 49.1471 356.835 49.1486C356.824 49.1549 356.693 49.2253 356.366 49.2916C356.039 49.3576 355.575 49.408 354.943 49.408V53.408V57.408C356.939 57.408 359.023 57.1094 360.796 56.0995C362.767 54.9765 364.031 53.1498 364.395 50.9165L360.447 50.272ZM354.943 53.408V49.408C353.832 49.408 353.249 49.282 353.019 49.2013C352.824 49.1329 353.255 49.2374 353.566 49.8387L350.015 51.68L346.464 53.5213C347.374 55.2746 348.924 56.2431 350.372 56.7507C351.784 57.246 353.367 57.408 354.943 57.408V53.408ZM350.015 51.68L353.64 49.9885C353.538 49.7692 353.47 49.5996 353.427 49.4756C353.384 49.3494 353.374 49.2942 353.375 49.3005L349.439 50.016L345.504 50.7316C345.672 51.6577 346.009 52.5545 346.391 53.3716L350.015 51.68ZM349.439 50.016L353.426 49.6838C353.397 49.3407 353.375 48.7268 353.375 47.776H349.375H345.375C345.375 48.7879 345.397 49.6673 345.453 50.3482L349.439 50.016ZM349.375 47.776H353.375V9.56801H349.375H345.375V47.776H349.375ZM349.375 9.56801H353.375C353.375 8.60763 353.398 8.03328 353.423 7.75416L349.439 7.39201L345.456 7.02987C345.396 7.68942 345.375 8.56573 345.375 9.56801H349.375ZM349.439 7.39201L353.385 8.04961C353.389 8.02489 353.424 7.85416 353.593 7.51686L350.015 5.72801L346.438 3.93916C346.009 4.79653 345.66 5.73513 345.494 6.73442L349.439 7.39201ZM350.015 5.72801L353.566 7.56928C353.246 8.18705 352.804 8.28665 353.02 8.21196C353.266 8.12691 353.87 8.00001 355.007 8.00001V4.00001V1.14441e-05C353.414 1.14441e-05 351.821 0.161118 350.403 0.652069C348.955 1.15337 347.382 2.11697 346.464 3.88675L350.015 5.72801ZM355.007 4.00001V8.00001C355.542 8.00001 355.966 8.02895 356.293 8.07275C356.625 8.11704 356.815 8.17094 356.9 8.20122C356.986 8.23147 356.912 8.21894 356.768 8.10445C356.609 7.97803 356.413 7.76526 356.267 7.46327L359.871 5.72801L363.475 3.99275C362.6 2.17537 361.03 1.1783 359.578 0.662804C358.166 0.161106 356.581 1.14441e-05 355.007 1.14441e-05V4.00001ZM359.871 5.72801L356.342 7.61036C356.427 7.76923 356.464 7.86609 356.477 7.90493C356.49 7.94376 356.471 7.90085 356.461 7.7882L360.447 7.45601L364.434 7.12383C364.331 5.89472 363.9 4.78239 363.401 3.84566L359.871 5.72801ZM360.447 7.45601L356.512 8.17155C356.512 8.17046 356.513 8.17904 356.516 8.1986C356.519 8.21799 356.522 8.24556 356.526 8.28214C356.534 8.35637 356.543 8.45675 356.55 8.5869C356.566 8.84975 356.575 9.19456 356.575 9.63201H360.575H364.575C364.575 8.60645 364.536 7.58172 364.383 6.74048L360.447 7.45601ZM360.575 9.63201H356.575V22.944H360.575H364.575V9.63201H360.575ZM360.575 22.944L363.674 25.4735C364.488 24.4766 365.688 23.808 367.871 23.808V19.808V15.808C363.741 15.808 360.076 17.2301 357.477 20.4145L360.575 22.944ZM362.239 40.48L359.304 43.1976C361.133 45.1724 363.522 46.208 366.207 46.208V42.208V38.208C365.736 38.208 365.479 38.0917 365.174 37.7624L362.239 40.48ZM366.207 42.208V46.208C368.889 46.208 371.268 45.178 373.121 43.2546L370.239 40.48L367.358 37.7054C366.992 38.086 366.683 38.208 366.207 38.208V42.208ZM370.239 40.48L373.121 43.2546C374.842 41.4668 375.903 39.2255 375.903 36.64H371.903H367.903C367.903 36.8705 367.855 37.1892 367.358 37.7054L370.239 40.48ZM371.903 36.64H375.903C375.903 34.1565 374.965 31.9518 373.357 30.1426L370.367 32.8L367.378 35.4575C367.818 35.9522 367.903 36.3075 367.903 36.64H371.903ZM370.367 32.8L373.404 30.1968C371.551 28.0341 369.034 27.008 366.271 27.008V31.008V35.008C366.922 35.008 367.136 35.1766 367.33 35.4032L370.367 32.8ZM366.271 31.008V27.008C363.509 27.008 360.992 28.0341 359.138 30.1968L362.175 32.8L365.212 35.4032C365.407 35.1766 365.621 35.008 366.271 35.008V31.008ZM362.175 32.8L359.085 30.2611C357.577 32.0964 356.703 34.2774 356.703 36.704H360.703H364.703C364.703 36.3146 364.811 35.893 365.266 35.339L362.175 32.8ZM360.703 36.704H356.703C356.703 39.1763 357.665 41.3544 359.25 43.1375L362.239 40.48L365.229 37.8226C364.766 37.3017 364.703 36.9624 364.703 36.704H360.703ZM387.506 50.464L385.37 53.846L385.376 53.8496L387.506 50.464ZM388.722 42.976L391.973 45.3068L392.029 45.2292L392.081 45.149L388.722 42.976ZM395.25 43.488L393.204 46.9252L393.235 46.9434L393.266 46.961L395.25 43.488ZM399.73 41.696L399.165 45.6558L399.181 45.6582L399.198 45.6604L399.73 41.696ZM391.73 38.688L389.621 42.0866L389.631 42.0925L389.64 42.0984L391.73 38.688ZM388.658 35.104L385.062 36.8559L385.072 36.8744L385.081 36.8929L388.658 35.104ZM410.674 21.28L412.337 17.6421L412.326 17.6369L410.674 21.28ZM411.506 27.616L414.893 29.7447V29.7447L411.506 27.616ZM405.746 28.896L404.049 32.5179L404.07 32.5278L404.091 32.5375L405.746 28.896ZM401.842 31.84L401.318 35.8054L401.369 35.8122L401.421 35.8177L401.842 31.84ZM410.034 34.272L408.246 37.8497L408.27 37.8621L408.295 37.8742L410.034 34.272ZM413.106 37.408L409.591 39.3164L409.624 39.3768L409.659 39.4361L413.106 37.408ZM413.106 48.608L409.588 46.7059L409.578 46.7234L409.569 46.741L413.106 48.608ZM409.65 52.064L411.394 55.6639L411.437 55.6431L411.48 55.6212L409.65 52.064ZM387.506 50.464L389.642 47.0821C389.817 47.1922 390.029 47.3976 390.172 47.6832C390.302 47.9439 390.29 48.1025 390.29 48.032H386.29H382.29C382.29 50.2608 383.201 52.4755 385.37 53.846L387.506 50.464ZM386.29 48.032H390.29C390.29 48.355 390.203 48.2947 390.503 47.6699C390.772 47.1103 391.239 46.3307 391.973 45.3068L388.722 42.976L385.472 40.6453C384.584 41.8827 383.835 43.0764 383.294 44.2021C382.784 45.2627 382.29 46.5997 382.29 48.032H386.29ZM388.722 42.976L392.081 45.149C391.936 45.3733 391.693 45.607 391.382 45.758C391.099 45.8957 390.917 45.888 390.962 45.888V41.888V37.888C388.873 37.888 386.716 38.7136 385.364 40.803L388.722 42.976ZM390.962 41.888V45.888C390.861 45.888 390.992 45.87 391.436 46.0356C391.861 46.1943 392.445 46.4733 393.204 46.9252L395.25 43.488L397.296 40.0508C395.374 38.9068 393.16 37.888 390.962 37.888V41.888ZM395.25 43.488L393.266 46.961C395.421 48.1926 397.734 49.024 400.114 49.024V45.024V41.024C399.593 41.024 398.664 40.8315 397.235 40.015L395.25 43.488ZM400.114 45.024V49.024C401.561 49.024 403.145 48.898 404.507 48.3623C405.22 48.0816 406.103 47.5998 406.826 46.7457C407.613 45.8176 408.018 44.673 408.018 43.488H404.018H400.018C400.018 42.815 400.262 42.1184 400.723 41.5743C401.121 41.1043 401.515 40.9425 401.578 40.9178C401.651 40.8888 401.587 40.9246 401.302 40.962C401.031 40.9975 400.643 41.024 400.114 41.024V45.024ZM404.018 43.488H408.018C408.018 41.971 407.307 40.8086 406.558 40.0704C405.872 39.3951 405.088 38.9919 404.489 38.7413C403.284 38.2377 401.796 37.9375 400.263 37.7316L399.73 41.696L399.198 45.6604C399.827 45.7448 400.327 45.8346 400.714 45.9232C401.112 46.0143 401.324 46.0893 401.404 46.1227C401.519 46.1708 401.272 46.0929 400.943 45.7696C400.762 45.591 400.525 45.3068 400.334 44.9009C400.135 44.4799 400.018 43.9966 400.018 43.488H404.018ZM399.73 41.696L400.296 37.7362C398.22 37.4397 396.067 36.6542 393.821 35.2776L391.73 38.688L389.64 42.0984C392.685 43.9645 395.865 45.1844 399.165 45.6558L399.73 41.696ZM391.73 38.688L393.84 35.2895C393.369 34.9971 392.796 34.4357 392.236 33.3152L388.658 35.104L385.081 36.8929C386.142 39.015 387.617 40.843 389.621 42.0866L391.73 38.688ZM388.658 35.104L392.254 33.3521C391.762 32.3414 391.442 31.0025 391.442 29.216H387.442H383.442C383.442 31.9522 383.934 34.5386 385.062 36.8559L388.658 35.104ZM387.442 29.216H391.442C391.442 26.8666 392.18 25.6583 393.269 24.8657C394.594 23.9012 397.068 23.104 401.33 23.104V19.104V15.104C396.335 15.104 391.865 15.9922 388.56 18.3984C385.019 20.9764 383.442 24.8241 383.442 29.216H387.442ZM401.33 19.104V23.104C403.706 23.104 406.259 23.6703 409.023 24.9231L410.674 21.28L412.326 17.6369C408.69 15.9884 405.013 15.104 401.33 15.104V19.104ZM410.674 21.28L409.011 24.9179C409.456 25.121 409.472 25.2121 409.344 25.066C409.268 24.9786 409.152 24.8186 409.058 24.5823C408.961 24.34 408.914 24.0832 408.914 23.84H412.914H416.914C416.914 20.4245 414.308 18.5427 412.337 17.6421L410.674 21.28ZM412.914 23.84H408.914C408.914 23.7519 408.932 23.8404 408.815 24.1545C408.699 24.4635 408.486 24.9042 408.12 25.4873L411.506 27.616L414.893 29.7447C415.977 28.0195 416.914 25.9844 416.914 23.84H412.914ZM411.506 27.616L408.12 25.4873C407.967 25.7311 407.841 25.8994 407.747 26.0096C407.653 26.121 407.61 26.1518 407.627 26.1386C407.645 26.124 407.743 26.0517 407.923 25.9826C408.11 25.9104 408.352 25.856 408.626 25.856V29.856V33.856C411.797 33.856 413.798 31.4862 414.893 29.7447L411.506 27.616ZM408.626 29.856V25.856C408.766 25.856 408.868 25.8665 408.922 25.8735C408.951 25.8772 408.973 25.8807 408.986 25.8831C409 25.8855 409.007 25.8871 409.008 25.8873C409.009 25.8874 408.99 25.8834 408.951 25.8722C408.912 25.8611 408.858 25.8447 408.787 25.8213C408.49 25.7221 408.037 25.5434 407.402 25.2545L405.746 28.896L404.091 32.5375C404.864 32.8886 405.595 33.1899 406.258 33.4107C406.828 33.601 407.7 33.856 408.626 33.856V29.856ZM405.746 28.896L407.444 25.2742C405.508 24.3667 403.43 23.936 401.266 23.936V27.936V31.936C402.346 31.936 403.254 32.1453 404.049 32.5179L405.746 28.896ZM401.266 27.936V23.936C399.873 23.936 398.349 24.0508 397.037 24.5401C396.355 24.7944 395.478 25.2413 394.744 26.0622C393.936 26.9666 393.49 28.1193 393.49 29.344H397.49H401.49C401.49 30.0994 401.202 30.8415 400.709 31.3939C400.289 31.8628 399.885 32.0163 399.832 32.0359C399.762 32.062 399.828 32.0283 400.108 31.9935C400.374 31.9604 400.753 31.936 401.266 31.936V27.936ZM397.49 29.344H393.49C393.49 31.8588 395.057 33.5198 396.588 34.3978C397.984 35.1982 399.68 35.5886 401.318 35.8054L401.842 31.84L402.367 27.8746C401.777 27.7965 401.334 27.7048 401.015 27.6156C400.686 27.5238 400.563 27.4552 400.568 27.4582C400.574 27.4612 400.814 27.5976 401.06 27.9553C401.336 28.3572 401.49 28.8547 401.49 29.344H397.49ZM401.842 31.84L401.421 35.8177C403.74 36.0637 406.009 36.7315 408.246 37.8497L410.034 34.272L411.823 30.6943C408.769 29.1672 405.577 28.2137 402.264 27.8623L401.842 31.84ZM410.034 34.272L408.295 37.8742C408.615 38.0284 409.084 38.3831 409.591 39.3164L413.106 37.408L416.622 35.4996C415.507 33.4463 413.929 31.7103 411.773 30.6698L410.034 34.272ZM413.106 37.408L409.659 39.4361C410.053 40.1063 410.386 41.1859 410.386 42.912H414.386H418.386C418.386 40.2008 417.867 37.6111 416.554 35.3799L413.106 37.408ZM414.386 42.912H410.386C410.386 44.6213 410.059 45.834 409.588 46.7059L413.106 48.608L416.625 50.5101C417.861 48.2247 418.386 45.64 418.386 42.912H414.386ZM413.106 48.608L409.569 46.741C409.127 47.5783 408.559 48.1273 407.821 48.5069L409.65 52.064L411.48 55.6212C413.728 54.4647 415.465 52.7097 416.644 50.4751L413.106 48.608ZM409.65 52.064L407.907 48.4641C405.88 49.4457 403.089 50.048 399.346 50.048V54.048V58.048C403.881 58.048 407.959 57.3276 411.394 55.6639L409.65 52.064ZM399.346 54.048V50.048C396.075 50.048 392.859 49.106 389.637 47.0784L387.506 50.464L385.376 53.8496C389.748 56.6007 394.425 58.048 399.346 58.048V54.048Z" fill="#2C2C2C" mask="url(#path-1-outside-1_16_37)"/>
</g>
<defs>
<filter id="filter0_d_16_37" x="0" y="0" width="426.387" height="80" filterUnits="userSpaceOnUse" color-interpolation-filters="sRGB">
<feFlood flood-opacity="0" result="BackgroundImageFix"/>
<feColorMatrix in="SourceAlpha" type="matrix" values="0 0 0 0 0 0 0 0 0 0 0 0 0 0 0 0 0 0 127 0" result="hardAlpha"/>
<feOffset dx="8" dy="8"/>
<feComposite in2="hardAlpha" operator="out"/>
<feColorMatrix type="matrix" values="0 0 0 0 0.172549 0 0 0 0 0.172549 0 0 0 0 0.172549 0 0 0 1 0"/>
<feBlend mode="normal" in2="BackgroundImageFix" result="effect1_dropShadow_16_37"/>
<feBlend mode="normal" in="SourceGraphic" in2="effect1_dropShadow_16_37" result="shape"/>
</filter>
</defs>
</svg>
