<svg xmlns="http://www.w3.org/2000/svg" viewBox="0 0 140.68 357.56"><defs><style>.cls-1,.cls-2{fill:#fefefc;}.cls-2,.cls-3,.cls-4,.cls-5,.cls-6{stroke:#2c2c2c;stroke-linecap:round;stroke-linejoin:round;}.cls-2,.cls-3{stroke-width:4px;}.cls-3,.cls-6{fill:none;}.cls-4{fill:#2c2c2c;stroke-width:2px;}.cls-5{fill:#fdcb63;}.cls-5,.cls-6{stroke-width:3px;}</style></defs><title>hand-wand</title><g id="Capa_2" data-name="Capa 2"><g id="Capa_1-2" data-name="Capa 1"><path class="cls-1" d="M140.64,286.53a35.88,35.88,0,0,0-3.16-12.92,32.54,32.54,0,0,0,2.13-16.35c-1.49-11.25-8.52-18.44-13.35-22.14a29.12,29.12,0,0,0-1.46-7.53c-4.62-13.77-17.7-19-21.6-20.28A7.46,7.46,0,0,0,102,207a43.47,43.47,0,0,0-6.75-.53c-.81,0-1.63,0-2.44.07l-1.14-83.5,3.46,1.81a11,11,0,0,0,16-11.59l-3.25-19,13.77-13.42a11,11,0,0,0-6.1-18.77l-19-2.76L88,42.14a10.91,10.91,0,0,0-4.82-4.89,7.94,7.94,0,0,0,1.71-4.93V8a8,8,0,0,0-16,0V32.32a8,8,0,0,0,2.63,5.91,11.07,11.07,0,0,0-3.25,3.91L59.72,59.38l-19,2.76a11,11,0,0,0-6.1,18.77L48.36,94.33l-3.25,19a11,11,0,0,0,16,11.6l.49-.26L58.7,203.08a30.09,30.09,0,0,0-3.06-.16,30.88,30.88,0,0,0-4.91.4c-18.3,3-27.37,24.65-30.35,31.76-7.29,17.36-7.18,34.65-4.65,48.8A18.66,18.66,0,0,0,3.14,312.7l.33.45,23.67,30.36A18.64,18.64,0,0,0,54.6,347l1.72-1.49a18.25,18.25,0,0,0,3-3.33,25.3,25.3,0,0,0,3.43,7.34c3.61,5.2,8.37,8.07,13.41,8.07h.51c8.07-.32,12.39-7.72,14.23-10.89A29,29,0,0,0,94.05,339c.81-.26,1.57-.51,2.27-.76l.26-.1C124.33,327.25,141.63,307,140.64,286.53Z"/><path class="cls-1" d="M44,52.9A8,8,0,0,0,55.27,41.58L38.07,24.39A8,8,0,0,0,26.76,35.7Z"/><path class="cls-1" d="M108.15,54.58a8,8,0,0,0,5.65-2.34L131,35a8,8,0,1,0-11.32-11.31L102.49,40.92a8,8,0,0,0,5.66,13.66Z"/><path class="cls-2" d="M12.56,293.55a10.64,10.64,0,0,1,14.3,2A77,77,0,0,0,52.4,324.65a10.87,10.87,0,0,1,2.35,7.65,10.61,10.61,0,0,1-3.65,7.12l-1.73,1.49a10.64,10.64,0,0,1-15.77-2.12L9.78,308.23A10.64,10.64,0,0,1,12.56,293.55Z"/><path class="cls-2" d="M26.86,295.58c-3.43-10.77-8.95-33.94.89-57.41C30.32,232,38.09,213.51,52,211.22a24,24,0,0,1,14.29,2.2,21.22,21.22,0,0,1,8,8,35.12,35.12,0,0,1,10.56-5.4c.83-.26,1.71-.5,2.62-.7a34.78,34.78,0,0,1,13.18-.43c1.66.54,12.87,4.41,16.5,15.21a21.85,21.85,0,0,1,1,9.22c1.23.67,11.88,6.69,13.5,19a25,25,0,0,1-3.11,15.43,28.84,28.84,0,0,1,4.08,13.18c.82,16.89-14.82,34.29-39,43.82-4.55,1.62-22.58,7.46-36.41-1.93a28.37,28.37,0,0,1-4.84-4.16,71.87,71.87,0,0,1-25.54-29.07Z"/><path class="cls-3" d="M74.36,221.45l11.53,18.08a13.89,13.89,0,0,1-1.43,17.06c-.22.22-.44.44-.67.65a15.08,15.08,0,0,1-5.23,3.11,13.87,13.87,0,0,1-15.45-4.87L51.65,240.53"/><path class="cls-3" d="M118.18,239.35c-5.27-1.39-16.17-3.36-26.46,2A30.8,30.8,0,0,0,87.65,244"/><path class="cls-3" d="M128.57,273.74A44.24,44.24,0,0,0,67.5,279.1a22.22,22.22,0,0,1-5.35-9.65,22.56,22.56,0,0,1,1-14"/><path class="cls-3" d="M67.5,279.1c-.37.37-5.59,5.91-3.85,13.5.06.29.14.57.22.84a11.58,11.58,0,0,0,9.23,8.05,11.94,11.94,0,0,0,4.9-.16c2.08-.5,3.94-1,5.57-1.45,3.77-1,6.71-2,9.17-2.74,4.68-1.42,7.63-2.07,11.19-1.11a16.79,16.79,0,0,1,7.5,4.5"/><path class="cls-4" d="M68.1,300.49l-1.81,33.06a18.23,18.23,0,0,0,3,11.38c2.08,3,4.61,4.72,7,4.62,3.68-.14,6.19-4.45,7.63-6.92,3.25-5.56,3.74-11.09,3.61-27.7,0-4.29-.11-9.68-.29-15.9a27.56,27.56,0,0,1-11,2.57A27.19,27.19,0,0,1,68.1,300.49Z"/><path class="cls-4" d="M84.92,216.05,83.36,101.78h-13L66.32,213.42a22.91,22.91,0,0,1,8.15,8.78,23.52,23.52,0,0,1,10.45-6.15Z"/><path class="cls-5" d="M80.78,45.68l9.68,19.6a3,3,0,0,0,2.25,1.64l21.63,3.14A3,3,0,0,1,116,75.18L100.36,90.43a3,3,0,0,0-.87,2.66l3.7,21.54a3,3,0,0,1-4.36,3.16L79.49,107.62a3,3,0,0,0-2.79,0L57.35,117.79A3,3,0,0,1,53,114.63l3.69-21.54a3,3,0,0,0-.86-2.66L40.18,75.18a3,3,0,0,1,1.66-5.12l21.63-3.14a3,3,0,0,0,2.26-1.64l9.67-19.6A3,3,0,0,1,80.78,45.68Z"/><line class="cls-6" x1="76.85" y1="8" x2="76.85" y2="32.32"/><line class="cls-6" x1="125.34" y1="29.38" x2="108.15" y2="46.58"/><line class="cls-6" x1="32.41" y1="30.04" x2="49.61" y2="47.24"/></g></g></svg>